<?xml version="1.0" encoding="utf-8" standalone="no"?>
<!DOCTYPE svg PUBLIC "-//W3C//DTD SVG 1.1//EN"
  "http://www.w3.org/Graphics/SVG/1.1/DTD/svg11.dtd">
<svg xmlns:xlink="http://www.w3.org/1999/xlink" width="1068.338437pt" height="445.836562pt" viewBox="0 0 1068.338437 445.836562" xmlns="http://www.w3.org/2000/svg" version="1.1">
 <metadata>
  <rdf:RDF xmlns:dc="http://purl.org/dc/elements/1.1/" xmlns:cc="http://creativecommons.org/ns#" xmlns:rdf="http://www.w3.org/1999/02/22-rdf-syntax-ns#">
   <cc:Work>
    <dc:type rdf:resource="http://purl.org/dc/dcmitype/StillImage"/>
    <dc:date>2026-10-04T11:59:47.814359</dc:date>
    <dc:format>image/svg+xml</dc:format>
    <dc:creator>
     <cc:Agent>
      <dc:title>Matplotlib v3.11.2, https://matplotlib.org/</dc:title>
     </cc:Agent>
    </dc:creator>
   </cc:Work>
  </rdf:RDF>
 </metadata>
 <defs>
  <style type="text/css">*{stroke-linejoin: round; stroke-linecap: butt}</style>
 </defs>
 <g id="figure_1">
  <g id="patch_1">
   <path d="M 0 445.836562 
L 1068.338437 445.836562 
L 1068.338437 0 
L 0 0 
z
" style="fill: #ffffff"/>
  </g>
  <g id="axes_1">
   <g id="patch_2">
    <path d="M 290.954687 407.635781 
L 1061.138438 407.635781 
L 1061.138438 22.318125 
L 290.954687 22.318125 
z
" style="fill: #ffffff"/>
   </g>
   <g id="matplotlib.axis_1">
    <g id="xtick_1">
     <g id="line2d_1">
      <path d="M 352.811682 407.635781 
L 352.811682 22.318125 
" clip-path="url(#p1d37124cc6)" style="fill: none; stroke: #b0b0b0; stroke-opacity: 0.2; stroke-width: 0.8; stroke-linecap: square"/>
     </g>
     <g id="line2d_2">
      <defs>
       <path id="m1fbfcd04ac" d="M 0 0 
L 0 3.5 
" style="stroke: #000000; stroke-width: 0.8"/>
      </defs>
      <g>
       <use xlink:href="#m1fbfcd04ac" x="352.811682" y="407.635781" style="stroke: #000000; stroke-width: 0.8"/>
      </g>
     </g>
     <g id="text_1">
      <!-- −10 -->
      <g transform="translate(342.259339 422.233437) scale(0.1 -0.1)">
       <defs>
        <path id="DejaVuSans-c9c" d="M 678 2272 
L 4684 2272 
L 4684 1741 
L 678 1741 
L 678 2272 
z
" transform="scale(0.015625)"/>
        <path id="DejaVuSans-14" d="M 794 531 
L 1825 531 
L 1825 4091 
L 703 3866 
L 703 4441 
L 1819 4666 
L 2450 4666 
L 2450 531 
L 3481 531 
L 3481 0 
L 794 0 
L 794 531 
z
" transform="scale(0.015625)"/>
        <path id="DejaVuSans-13" d="M 2034 4250 
Q 1547 4250 1301 3770 
Q 1056 3291 1056 2328 
Q 1056 1369 1301 889 
Q 1547 409 2034 409 
Q 2525 409 2770 889 
Q 3016 1369 3016 2328 
Q 3016 3291 2770 3770 
Q 2525 4250 2034 4250 
z
M 2034 4750 
Q 2819 4750 3233 4129 
Q 3647 3509 3647 2328 
Q 3647 1150 3233 529 
Q 2819 -91 2034 -91 
Q 1250 -91 836 529 
Q 422 1150 422 2328 
Q 422 3509 836 4129 
Q 1250 4750 2034 4750 
z
" transform="scale(0.015625)"/>
       </defs>
       <use xlink:href="#DejaVuSans-c9c"/>
       <use xlink:href="#DejaVuSans-14" transform="translate(83.796875 0)"/>
       <use xlink:href="#DejaVuSans-13" transform="translate(147.421875 0)"/>
      </g>
     </g>
    </g>
    <g id="xtick_2">
     <g id="line2d_3">
      <path d="M 477.793987 407.635781 
L 477.793987 22.318125 
" clip-path="url(#p1d37124cc6)" style="fill: none; stroke: #b0b0b0; stroke-opacity: 0.2; stroke-width: 0.8; stroke-linecap: square"/>
     </g>
     <g id="line2d_4">
      <g>
       <use xlink:href="#m1fbfcd04ac" x="477.793987" y="407.635781" style="stroke: #000000; stroke-width: 0.8"/>
      </g>
     </g>
     <g id="text_2">
      <!-- −5 -->
      <g transform="translate(470.422893 422.233437) scale(0.1 -0.1)">
       <defs>
        <path id="DejaVuSans-18" d="M 691 4666 
L 3169 4666 
L 3169 4134 
L 1269 4134 
L 1269 2991 
Q 1406 3038 1543 3061 
Q 1681 3084 1819 3084 
Q 2600 3084 3056 2656 
Q 3513 2228 3513 1497 
Q 3513 744 3044 326 
Q 2575 -91 1722 -91 
Q 1428 -91 1123 -41 
Q 819 9 494 109 
L 494 744 
Q 775 591 1075 516 
Q 1375 441 1709 441 
Q 2250 441 2565 725 
Q 2881 1009 2881 1497 
Q 2881 1984 2565 2268 
Q 2250 2553 1709 2553 
Q 1456 2553 1204 2497 
Q 953 2441 691 2322 
L 691 4666 
z
" transform="scale(0.015625)"/>
       </defs>
       <use xlink:href="#DejaVuSans-c9c"/>
       <use xlink:href="#DejaVuSans-18" transform="translate(83.796875 0)"/>
      </g>
     </g>
    </g>
    <g id="xtick_3">
     <g id="line2d_5">
      <path d="M 602.776291 407.635781 
L 602.776291 22.318125 
" clip-path="url(#p1d37124cc6)" style="fill: none; stroke: #b0b0b0; stroke-opacity: 0.2; stroke-width: 0.8; stroke-linecap: square"/>
     </g>
     <g id="line2d_6">
      <g>
       <use xlink:href="#m1fbfcd04ac" x="602.776291" y="407.635781" style="stroke: #000000; stroke-width: 0.8"/>
      </g>
     </g>
     <g id="text_3">
      <!-- 0 -->
      <g transform="translate(599.595041 422.233437) scale(0.1 -0.1)">
       <use xlink:href="#DejaVuSans-13"/>
      </g>
     </g>
    </g>
    <g id="xtick_4">
     <g id="line2d_7">
      <path d="M 727.758596 407.635781 
L 727.758596 22.318125 
" clip-path="url(#p1d37124cc6)" style="fill: none; stroke: #b0b0b0; stroke-opacity: 0.2; stroke-width: 0.8; stroke-linecap: square"/>
     </g>
     <g id="line2d_8">
      <g>
       <use xlink:href="#m1fbfcd04ac" x="727.758596" y="407.635781" style="stroke: #000000; stroke-width: 0.8"/>
      </g>
     </g>
     <g id="text_4">
      <!-- 5 -->
      <g transform="translate(724.577346 422.233437) scale(0.1 -0.1)">
       <use xlink:href="#DejaVuSans-18"/>
      </g>
     </g>
    </g>
    <g id="xtick_5">
     <g id="line2d_9">
      <path d="M 852.7409 407.635781 
L 852.7409 22.318125 
" clip-path="url(#p1d37124cc6)" style="fill: none; stroke: #b0b0b0; stroke-opacity: 0.2; stroke-width: 0.8; stroke-linecap: square"/>
     </g>
     <g id="line2d_10">
      <g>
       <use xlink:href="#m1fbfcd04ac" x="852.7409" y="407.635781" style="stroke: #000000; stroke-width: 0.8"/>
      </g>
     </g>
     <g id="text_5">
      <!-- 10 -->
      <g transform="translate(846.3784 422.233437) scale(0.1 -0.1)">
       <use xlink:href="#DejaVuSans-14"/>
       <use xlink:href="#DejaVuSans-13" transform="translate(63.625 0)"/>
      </g>
     </g>
    </g>
    <g id="xtick_6">
     <g id="line2d_11">
      <path d="M 977.723205 407.635781 
L 977.723205 22.318125 
" clip-path="url(#p1d37124cc6)" style="fill: none; stroke: #b0b0b0; stroke-opacity: 0.2; stroke-width: 0.8; stroke-linecap: square"/>
     </g>
     <g id="line2d_12">
      <g>
       <use xlink:href="#m1fbfcd04ac" x="977.723205" y="407.635781" style="stroke: #000000; stroke-width: 0.8"/>
      </g>
     </g>
     <g id="text_6">
      <!-- 15 -->
      <g transform="translate(971.360705 422.233437) scale(0.1 -0.1)">
       <use xlink:href="#DejaVuSans-14"/>
       <use xlink:href="#DejaVuSans-18" transform="translate(63.625 0)"/>
      </g>
     </g>
    </g>
    <g id="text_7">
     <!-- Change in percentage points: 2026 minus 2025 -->
     <g transform="translate(556.652812 436.234219) scale(0.1 -0.1)">
      <defs>
       <path id="DejaVuSans-26" d="M 4122 4306 
L 4122 3641 
Q 3803 3938 3442 4084 
Q 3081 4231 2675 4231 
Q 1875 4231 1450 3742 
Q 1025 3253 1025 2328 
Q 1025 1406 1450 917 
Q 1875 428 2675 428 
Q 3081 428 3442 575 
Q 3803 722 4122 1019 
L 4122 359 
Q 3791 134 3420 21 
Q 3050 -91 2638 -91 
Q 1578 -91 968 557 
Q 359 1206 359 2328 
Q 359 3453 968 4101 
Q 1578 4750 2638 4750 
Q 3056 4750 3426 4639 
Q 3797 4528 4122 4306 
z
" transform="scale(0.015625)"/>
       <path id="DejaVuSans-4b" d="M 3513 2113 
L 3513 0 
L 2938 0 
L 2938 2094 
Q 2938 2591 2744 2837 
Q 2550 3084 2163 3084 
Q 1697 3084 1428 2787 
Q 1159 2491 1159 1978 
L 1159 0 
L 581 0 
L 581 4863 
L 1159 4863 
L 1159 2956 
Q 1366 3272 1645 3428 
Q 1925 3584 2291 3584 
Q 2894 3584 3203 3211 
Q 3513 2838 3513 2113 
z
" transform="scale(0.015625)"/>
       <path id="DejaVuSans-44" d="M 2194 1759 
Q 1497 1759 1228 1600 
Q 959 1441 959 1056 
Q 959 750 1161 570 
Q 1363 391 1709 391 
Q 2188 391 2477 730 
Q 2766 1069 2766 1631 
L 2766 1759 
L 2194 1759 
z
M 3341 1997 
L 3341 0 
L 2766 0 
L 2766 531 
Q 2569 213 2275 61 
Q 1981 -91 1556 -91 
Q 1019 -91 701 211 
Q 384 513 384 1019 
Q 384 1609 779 1909 
Q 1175 2209 1959 2209 
L 2766 2209 
L 2766 2266 
Q 2766 2663 2505 2880 
Q 2244 3097 1772 3097 
Q 1472 3097 1187 3025 
Q 903 2953 641 2809 
L 641 3341 
Q 956 3463 1253 3523 
Q 1550 3584 1831 3584 
Q 2591 3584 2966 3190 
Q 3341 2797 3341 1997 
z
" transform="scale(0.015625)"/>
       <path id="DejaVuSans-51" d="M 3513 2113 
L 3513 0 
L 2938 0 
L 2938 2094 
Q 2938 2591 2744 2837 
Q 2550 3084 2163 3084 
Q 1697 3084 1428 2787 
Q 1159 2491 1159 1978 
L 1159 0 
L 581 0 
L 581 3500 
L 1159 3500 
L 1159 2956 
Q 1366 3272 1645 3428 
Q 1925 3584 2291 3584 
Q 2894 3584 3203 3211 
Q 3513 2838 3513 2113 
z
" transform="scale(0.015625)"/>
       <path id="DejaVuSans-4a" d="M 2906 1791 
Q 2906 2416 2648 2759 
Q 2391 3103 1925 3103 
Q 1463 3103 1205 2759 
Q 947 2416 947 1791 
Q 947 1169 1205 825 
Q 1463 481 1925 481 
Q 2391 481 2648 825 
Q 2906 1169 2906 1791 
z
M 3481 434 
Q 3481 -459 3084 -895 
Q 2688 -1331 1869 -1331 
Q 1566 -1331 1297 -1286 
Q 1028 -1241 775 -1147 
L 775 -588 
Q 1028 -725 1275 -790 
Q 1522 -856 1778 -856 
Q 2344 -856 2625 -561 
Q 2906 -266 2906 331 
L 2906 616 
Q 2728 306 2450 153 
Q 2172 0 1784 0 
Q 1141 0 747 490 
Q 353 981 353 1791 
Q 353 2603 747 3093 
Q 1141 3584 1784 3584 
Q 2172 3584 2450 3431 
Q 2728 3278 2906 2969 
L 2906 3500 
L 3481 3500 
L 3481 434 
z
" transform="scale(0.015625)"/>
       <path id="DejaVuSans-48" d="M 3597 1894 
L 3597 1613 
L 953 1613 
Q 991 1019 1311 708 
Q 1631 397 2203 397 
Q 2534 397 2845 478 
Q 3156 559 3463 722 
L 3463 178 
Q 3153 47 2828 -22 
Q 2503 -91 2169 -91 
Q 1331 -91 842 396 
Q 353 884 353 1716 
Q 353 2575 817 3079 
Q 1281 3584 2069 3584 
Q 2775 3584 3186 3129 
Q 3597 2675 3597 1894 
z
M 3022 2063 
Q 3016 2534 2758 2815 
Q 2500 3097 2075 3097 
Q 1594 3097 1305 2825 
Q 1016 2553 972 2059 
L 3022 2063 
z
" transform="scale(0.015625)"/>
       <path id="DejaVuSans-3" transform="scale(0.015625)"/>
       <path id="DejaVuSans-4c" d="M 603 3500 
L 1178 3500 
L 1178 0 
L 603 0 
L 603 3500 
z
M 603 4863 
L 1178 4863 
L 1178 4134 
L 603 4134 
L 603 4863 
z
" transform="scale(0.015625)"/>
       <path id="DejaVuSans-53" d="M 1159 525 
L 1159 -1331 
L 581 -1331 
L 581 3500 
L 1159 3500 
L 1159 2969 
Q 1341 3281 1617 3432 
Q 1894 3584 2278 3584 
Q 2916 3584 3314 3078 
Q 3713 2572 3713 1747 
Q 3713 922 3314 415 
Q 2916 -91 2278 -91 
Q 1894 -91 1617 61 
Q 1341 213 1159 525 
z
M 3116 1747 
Q 3116 2381 2855 2742 
Q 2594 3103 2138 3103 
Q 1681 3103 1420 2742 
Q 1159 2381 1159 1747 
Q 1159 1113 1420 752 
Q 1681 391 2138 391 
Q 2594 391 2855 752 
Q 3116 1113 3116 1747 
z
" transform="scale(0.015625)"/>
       <path id="DejaVuSans-55" d="M 2631 2963 
Q 2534 3019 2420 3045 
Q 2306 3072 2169 3072 
Q 1681 3072 1420 2755 
Q 1159 2438 1159 1844 
L 1159 0 
L 581 0 
L 581 3500 
L 1159 3500 
L 1159 2956 
Q 1341 3275 1631 3429 
Q 1922 3584 2338 3584 
Q 2397 3584 2469 3576 
Q 2541 3569 2628 3553 
L 2631 2963 
z
" transform="scale(0.015625)"/>
       <path id="DejaVuSans-46" d="M 3122 3366 
L 3122 2828 
Q 2878 2963 2633 3030 
Q 2388 3097 2138 3097 
Q 1578 3097 1268 2742 
Q 959 2388 959 1747 
Q 959 1106 1268 751 
Q 1578 397 2138 397 
Q 2388 397 2633 464 
Q 2878 531 3122 666 
L 3122 134 
Q 2881 22 2623 -34 
Q 2366 -91 2075 -91 
Q 1284 -91 818 406 
Q 353 903 353 1747 
Q 353 2603 823 3093 
Q 1294 3584 2113 3584 
Q 2378 3584 2631 3529 
Q 2884 3475 3122 3366 
z
" transform="scale(0.015625)"/>
       <path id="DejaVuSans-57" d="M 1172 4494 
L 1172 3500 
L 2356 3500 
L 2356 3053 
L 1172 3053 
L 1172 1153 
Q 1172 725 1289 603 
Q 1406 481 1766 481 
L 2356 481 
L 2356 0 
L 1766 0 
Q 1100 0 847 248 
Q 594 497 594 1153 
L 594 3053 
L 172 3053 
L 172 3500 
L 594 3500 
L 594 4494 
L 1172 4494 
z
" transform="scale(0.015625)"/>
       <path id="DejaVuSans-52" d="M 1959 3097 
Q 1497 3097 1228 2736 
Q 959 2375 959 1747 
Q 959 1119 1226 758 
Q 1494 397 1959 397 
Q 2419 397 2687 759 
Q 2956 1122 2956 1747 
Q 2956 2369 2687 2733 
Q 2419 3097 1959 3097 
z
M 1959 3584 
Q 2709 3584 3137 3096 
Q 3566 2609 3566 1747 
Q 3566 888 3137 398 
Q 2709 -91 1959 -91 
Q 1206 -91 779 398 
Q 353 888 353 1747 
Q 353 2609 779 3096 
Q 1206 3584 1959 3584 
z
" transform="scale(0.015625)"/>
       <path id="DejaVuSans-56" d="M 2834 3397 
L 2834 2853 
Q 2591 2978 2328 3040 
Q 2066 3103 1784 3103 
Q 1356 3103 1142 2972 
Q 928 2841 928 2578 
Q 928 2378 1081 2264 
Q 1234 2150 1697 2047 
L 1894 2003 
Q 2506 1872 2764 1633 
Q 3022 1394 3022 966 
Q 3022 478 2636 193 
Q 2250 -91 1575 -91 
Q 1294 -91 989 -36 
Q 684 19 347 128 
L 347 722 
Q 666 556 975 473 
Q 1284 391 1588 391 
Q 1994 391 2212 530 
Q 2431 669 2431 922 
Q 2431 1156 2273 1281 
Q 2116 1406 1581 1522 
L 1381 1569 
Q 847 1681 609 1914 
Q 372 2147 372 2553 
Q 372 3047 722 3315 
Q 1072 3584 1716 3584 
Q 2034 3584 2315 3537 
Q 2597 3491 2834 3397 
z
" transform="scale(0.015625)"/>
       <path id="DejaVuSans-1d" d="M 750 794 
L 1409 794 
L 1409 0 
L 750 0 
L 750 794 
z
M 750 3309 
L 1409 3309 
L 1409 2516 
L 750 2516 
L 750 3309 
z
" transform="scale(0.015625)"/>
       <path id="DejaVuSans-15" d="M 1228 531 
L 3431 531 
L 3431 0 
L 469 0 
L 469 531 
Q 828 903 1448 1529 
Q 2069 2156 2228 2338 
Q 2531 2678 2651 2914 
Q 2772 3150 2772 3378 
Q 2772 3750 2511 3984 
Q 2250 4219 1831 4219 
Q 1534 4219 1204 4116 
Q 875 4013 500 3803 
L 500 4441 
Q 881 4594 1212 4672 
Q 1544 4750 1819 4750 
Q 2544 4750 2975 4387 
Q 3406 4025 3406 3419 
Q 3406 3131 3298 2873 
Q 3191 2616 2906 2266 
Q 2828 2175 2409 1742 
Q 1991 1309 1228 531 
z
" transform="scale(0.015625)"/>
       <path id="DejaVuSans-19" d="M 2113 2584 
Q 1688 2584 1439 2293 
Q 1191 2003 1191 1497 
Q 1191 994 1439 701 
Q 1688 409 2113 409 
Q 2538 409 2786 701 
Q 3034 994 3034 1497 
Q 3034 2003 2786 2293 
Q 2538 2584 2113 2584 
z
M 3366 4563 
L 3366 3988 
Q 3128 4100 2886 4159 
Q 2644 4219 2406 4219 
Q 1781 4219 1451 3797 
Q 1122 3375 1075 2522 
Q 1259 2794 1537 2939 
Q 1816 3084 2150 3084 
Q 2853 3084 3261 2657 
Q 3669 2231 3669 1497 
Q 3669 778 3244 343 
Q 2819 -91 2113 -91 
Q 1303 -91 875 529 
Q 447 1150 447 2328 
Q 447 3434 972 4092 
Q 1497 4750 2381 4750 
Q 2619 4750 2861 4703 
Q 3103 4656 3366 4563 
z
" transform="scale(0.015625)"/>
       <path id="DejaVuSans-50" d="M 3328 2828 
Q 3544 3216 3844 3400 
Q 4144 3584 4550 3584 
Q 5097 3584 5394 3201 
Q 5691 2819 5691 2113 
L 5691 0 
L 5113 0 
L 5113 2094 
Q 5113 2597 4934 2840 
Q 4756 3084 4391 3084 
Q 3944 3084 3684 2787 
Q 3425 2491 3425 1978 
L 3425 0 
L 2847 0 
L 2847 2094 
Q 2847 2600 2669 2842 
Q 2491 3084 2119 3084 
Q 1678 3084 1418 2786 
Q 1159 2488 1159 1978 
L 1159 0 
L 581 0 
L 581 3500 
L 1159 3500 
L 1159 2956 
Q 1356 3278 1631 3431 
Q 1906 3584 2284 3584 
Q 2666 3584 2933 3390 
Q 3200 3197 3328 2828 
z
" transform="scale(0.015625)"/>
       <path id="DejaVuSans-58" d="M 544 1381 
L 544 3500 
L 1119 3500 
L 1119 1403 
Q 1119 906 1312 657 
Q 1506 409 1894 409 
Q 2359 409 2629 706 
Q 2900 1003 2900 1516 
L 2900 3500 
L 3475 3500 
L 3475 0 
L 2900 0 
L 2900 538 
Q 2691 219 2414 64 
Q 2138 -91 1772 -91 
Q 1169 -91 856 284 
Q 544 659 544 1381 
z
M 1991 3584 
L 1991 3584 
z
" transform="scale(0.015625)"/>
      </defs>
      <use xlink:href="#DejaVuSans-26"/>
      <use xlink:href="#DejaVuSans-4b" transform="translate(69.828125 0)"/>
      <use xlink:href="#DejaVuSans-44" transform="translate(133.203125 0)"/>
      <use xlink:href="#DejaVuSans-51" transform="translate(194.484375 0)"/>
      <use xlink:href="#DejaVuSans-4a" transform="translate(257.859375 0)"/>
      <use xlink:href="#DejaVuSans-48" transform="translate(321.34375 0)"/>
      <use xlink:href="#DejaVuSans-3" transform="translate(382.875 0)"/>
      <use xlink:href="#DejaVuSans-4c" transform="translate(414.65625 0)"/>
      <use xlink:href="#DejaVuSans-51" transform="translate(442.4375 0)"/>
      <use xlink:href="#DejaVuSans-3" transform="translate(505.8125 0)"/>
      <use xlink:href="#DejaVuSans-53" transform="translate(537.59375 0)"/>
      <use xlink:href="#DejaVuSans-48" transform="translate(601.078125 0)"/>
      <use xlink:href="#DejaVuSans-55" transform="translate(662.609375 0)"/>
      <use xlink:href="#DejaVuSans-46" transform="translate(701.515625 0)"/>
      <use xlink:href="#DejaVuSans-48" transform="translate(756.5 0)"/>
      <use xlink:href="#DejaVuSans-51" transform="translate(818.03125 0)"/>
      <use xlink:href="#DejaVuSans-57" transform="translate(881.40625 0)"/>
      <use xlink:href="#DejaVuSans-44" transform="translate(920.609375 0)"/>
      <use xlink:href="#DejaVuSans-4a" transform="translate(981.890625 0)"/>
      <use xlink:href="#DejaVuSans-48" transform="translate(1045.375 0)"/>
      <use xlink:href="#DejaVuSans-3" transform="translate(1106.90625 0)"/>
      <use xlink:href="#DejaVuSans-53" transform="translate(1138.6875 0)"/>
      <use xlink:href="#DejaVuSans-52" transform="translate(1202.171875 0)"/>
      <use xlink:href="#DejaVuSans-4c" transform="translate(1263.359375 0)"/>
      <use xlink:href="#DejaVuSans-51" transform="translate(1291.140625 0)"/>
      <use xlink:href="#DejaVuSans-57" transform="translate(1354.515625 0)"/>
      <use xlink:href="#DejaVuSans-56" transform="translate(1393.71875 0)"/>
      <use xlink:href="#DejaVuSans-1d" transform="translate(1445.8125 0)"/>
      <use xlink:href="#DejaVuSans-3" transform="translate(1479.5 0)"/>
      <use xlink:href="#DejaVuSans-15" transform="translate(1511.28125 0)"/>
      <use xlink:href="#DejaVuSans-13" transform="translate(1574.90625 0)"/>
      <use xlink:href="#DejaVuSans-15" transform="translate(1638.53125 0)"/>
      <use xlink:href="#DejaVuSans-19" transform="translate(1702.15625 0)"/>
      <use xlink:href="#DejaVuSans-3" transform="translate(1765.78125 0)"/>
      <use xlink:href="#DejaVuSans-50" transform="translate(1797.5625 0)"/>
      <use xlink:href="#DejaVuSans-4c" transform="translate(1894.96875 0)"/>
      <use xlink:href="#DejaVuSans-51" transform="translate(1922.75 0)"/>
      <use xlink:href="#DejaVuSans-58" transform="translate(1986.125 0)"/>
      <use xlink:href="#DejaVuSans-56" transform="translate(2049.5 0)"/>
      <use xlink:href="#DejaVuSans-3" transform="translate(2101.59375 0)"/>
      <use xlink:href="#DejaVuSans-15" transform="translate(2133.375 0)"/>
      <use xlink:href="#DejaVuSans-13" transform="translate(2197 0)"/>
      <use xlink:href="#DejaVuSans-15" transform="translate(2260.625 0)"/>
      <use xlink:href="#DejaVuSans-18" transform="translate(2324.25 0)"/>
     </g>
    </g>
   </g>
   <g id="matplotlib.axis_2">
    <g id="ytick_1">
     <g id="line2d_13">
      <defs>
       <path id="m3ad30c2f99" d="M 0 0 
L -3.5 0 
" style="stroke: #000000; stroke-width: 0.8"/>
      </defs>
      <g>
       <use xlink:href="#m3ad30c2f99" x="290.954687" y="380.654078" style="stroke: #000000; stroke-width: 0.8"/>
      </g>
     </g>
     <g id="text_8">
      <!-- Tuulikuinfraheli häirivuse ja tervisemõju vaidlus -->
      <g transform="translate(46.304687 384.538453) scale(0.1 -0.1)">
       <defs>
        <path id="DejaVuSans-37" d="M -19 4666 
L 3928 4666 
L 3928 4134 
L 2272 4134 
L 2272 0 
L 1638 0 
L 1638 4134 
L -19 4134 
L -19 4666 
z
" transform="scale(0.015625)"/>
        <path id="DejaVuSans-4f" d="M 603 4863 
L 1178 4863 
L 1178 0 
L 603 0 
L 603 4863 
z
" transform="scale(0.015625)"/>
        <path id="DejaVuSans-4e" d="M 581 4863 
L 1159 4863 
L 1159 1991 
L 2875 3500 
L 3609 3500 
L 1753 1863 
L 3688 0 
L 2938 0 
L 1159 1709 
L 1159 0 
L 581 0 
L 581 4863 
z
" transform="scale(0.015625)"/>
        <path id="DejaVuSans-49" d="M 2375 4863 
L 2375 4384 
L 1825 4384 
Q 1516 4384 1395 4259 
Q 1275 4134 1275 3809 
L 1275 3500 
L 2222 3500 
L 2222 3053 
L 1275 3053 
L 1275 0 
L 697 0 
L 697 3053 
L 147 3053 
L 147 3500 
L 697 3500 
L 697 3744 
Q 697 4328 969 4595 
Q 1241 4863 1831 4863 
L 2375 4863 
z
" transform="scale(0.015625)"/>
        <path id="DejaVuSans-a6" d="M 2194 1759 
Q 1497 1759 1228 1600 
Q 959 1441 959 1056 
Q 959 750 1161 570 
Q 1363 391 1709 391 
Q 2188 391 2477 730 
Q 2766 1069 2766 1631 
L 2766 1759 
L 2194 1759 
z
M 3341 1997 
L 3341 0 
L 2766 0 
L 2766 531 
Q 2569 213 2275 61 
Q 1981 -91 1556 -91 
Q 1019 -91 701 211 
Q 384 513 384 1019 
Q 384 1609 779 1909 
Q 1175 2209 1959 2209 
L 2766 2209 
L 2766 2266 
Q 2766 2663 2505 2880 
Q 2244 3097 1772 3097 
Q 1472 3097 1187 3025 
Q 903 2953 641 2809 
L 641 3341 
Q 956 3463 1253 3523 
Q 1550 3584 1831 3584 
Q 2591 3584 2966 3190 
Q 3341 2797 3341 1997 
z
M 2150 4850 
L 2784 4850 
L 2784 4219 
L 2150 4219 
L 2150 4850 
z
M 928 4850 
L 1562 4850 
L 1562 4219 
L 928 4219 
L 928 4850 
z
" transform="scale(0.015625)"/>
        <path id="DejaVuSans-59" d="M 191 3500 
L 800 3500 
L 1894 563 
L 2988 3500 
L 3597 3500 
L 2284 0 
L 1503 0 
L 191 3500 
z
" transform="scale(0.015625)"/>
        <path id="DejaVuSans-4d" d="M 603 3500 
L 1178 3500 
L 1178 -63 
Q 1178 -731 923 -1031 
Q 669 -1331 103 -1331 
L -116 -1331 
L -116 -844 
L 38 -844 
Q 366 -844 484 -692 
Q 603 -541 603 -63 
L 603 3500 
z
M 603 4863 
L 1178 4863 
L 1178 4134 
L 603 4134 
L 603 4863 
z
" transform="scale(0.015625)"/>
        <path id="DejaVuSans-b7" d="M 1959 3097 
Q 1497 3097 1228 2736 
Q 959 2375 959 1747 
Q 959 1119 1226 758 
Q 1494 397 1959 397 
Q 2419 397 2687 759 
Q 2956 1122 2956 1747 
Q 2956 2369 2687 2733 
Q 2419 3097 1959 3097 
z
M 1959 3584 
Q 2709 3584 3137 3096 
Q 3566 2609 3566 1747 
Q 3566 888 3137 398 
Q 2709 -91 1959 -91 
Q 1206 -91 779 398 
Q 353 888 353 1747 
Q 353 2609 779 3096 
Q 1206 3584 1959 3584 
z
M 1947 4281 
L 1768 4453 
Q 1700 4516 1648 4545 
Q 1597 4575 1556 4575 
Q 1437 4575 1381 4461 
Q 1325 4347 1318 4091 
L 928 4091 
Q 934 4513 1093 4742 
Q 1253 4972 1537 4972 
Q 1656 4972 1756 4928 
Q 1856 4884 1972 4781 
L 2150 4609 
Q 2218 4547 2270 4517 
Q 2322 4488 2362 4488 
Q 2481 4488 2537 4602 
Q 2593 4716 2600 4972 
L 2990 4972 
Q 2984 4550 2824 4320 
Q 2665 4091 2381 4091 
Q 2262 4091 2162 4134 
Q 2062 4178 1947 4281 
z
" transform="scale(0.015625)"/>
        <path id="DejaVuSans-47" d="M 2906 2969 
L 2906 4863 
L 3481 4863 
L 3481 0 
L 2906 0 
L 2906 525 
Q 2725 213 2448 61 
Q 2172 -91 1784 -91 
Q 1150 -91 751 415 
Q 353 922 353 1747 
Q 353 2572 751 3078 
Q 1150 3584 1784 3584 
Q 2172 3584 2448 3432 
Q 2725 3281 2906 2969 
z
M 947 1747 
Q 947 1113 1208 752 
Q 1469 391 1925 391 
Q 2381 391 2643 752 
Q 2906 1113 2906 1747 
Q 2906 2381 2643 2742 
Q 2381 3103 1925 3103 
Q 1469 3103 1208 2742 
Q 947 2381 947 1747 
z
" transform="scale(0.015625)"/>
       </defs>
       <use xlink:href="#DejaVuSans-37"/>
       <use xlink:href="#DejaVuSans-58" transform="translate(45.890625 0)"/>
       <use xlink:href="#DejaVuSans-58" transform="translate(109.265625 0)"/>
       <use xlink:href="#DejaVuSans-4f" transform="translate(172.640625 0)"/>
       <use xlink:href="#DejaVuSans-4c" transform="translate(200.421875 0)"/>
       <use xlink:href="#DejaVuSans-4e" transform="translate(228.203125 0)"/>
       <use xlink:href="#DejaVuSans-58" transform="translate(283.03125 0)"/>
       <use xlink:href="#DejaVuSans-4c" transform="translate(346.40625 0)"/>
       <use xlink:href="#DejaVuSans-51" transform="translate(374.1875 0)"/>
       <use xlink:href="#DejaVuSans-49" transform="translate(437.5625 0)"/>
       <use xlink:href="#DejaVuSans-55" transform="translate(472.765625 0)"/>
       <use xlink:href="#DejaVuSans-44" transform="translate(513.875 0)"/>
       <use xlink:href="#DejaVuSans-4b" transform="translate(575.15625 0)"/>
       <use xlink:href="#DejaVuSans-48" transform="translate(638.53125 0)"/>
       <use xlink:href="#DejaVuSans-4f" transform="translate(700.0625 0)"/>
       <use xlink:href="#DejaVuSans-4c" transform="translate(727.84375 0)"/>
       <use xlink:href="#DejaVuSans-3" transform="translate(755.625 0)"/>
       <use xlink:href="#DejaVuSans-4b" transform="translate(787.40625 0)"/>
       <use xlink:href="#DejaVuSans-a6" transform="translate(850.78125 0)"/>
       <use xlink:href="#DejaVuSans-4c" transform="translate(912.0625 0)"/>
       <use xlink:href="#DejaVuSans-55" transform="translate(939.84375 0)"/>
       <use xlink:href="#DejaVuSans-4c" transform="translate(980.953125 0)"/>
       <use xlink:href="#DejaVuSans-59" transform="translate(1008.734375 0)"/>
       <use xlink:href="#DejaVuSans-58" transform="translate(1067.921875 0)"/>
       <use xlink:href="#DejaVuSans-56" transform="translate(1131.296875 0)"/>
       <use xlink:href="#DejaVuSans-48" transform="translate(1183.390625 0)"/>
       <use xlink:href="#DejaVuSans-3" transform="translate(1244.921875 0)"/>
       <use xlink:href="#DejaVuSans-4d" transform="translate(1276.703125 0)"/>
       <use xlink:href="#DejaVuSans-44" transform="translate(1304.484375 0)"/>
       <use xlink:href="#DejaVuSans-3" transform="translate(1365.765625 0)"/>
       <use xlink:href="#DejaVuSans-57" transform="translate(1397.546875 0)"/>
       <use xlink:href="#DejaVuSans-48" transform="translate(1436.75 0)"/>
       <use xlink:href="#DejaVuSans-55" transform="translate(1498.28125 0)"/>
       <use xlink:href="#DejaVuSans-59" transform="translate(1539.390625 0)"/>
       <use xlink:href="#DejaVuSans-4c" transform="translate(1598.578125 0)"/>
       <use xlink:href="#DejaVuSans-56" transform="translate(1626.359375 0)"/>
       <use xlink:href="#DejaVuSans-48" transform="translate(1678.453125 0)"/>
       <use xlink:href="#DejaVuSans-50" transform="translate(1739.984375 0)"/>
       <use xlink:href="#DejaVuSans-b7" transform="translate(1837.390625 0)"/>
       <use xlink:href="#DejaVuSans-4d" transform="translate(1898.578125 0)"/>
       <use xlink:href="#DejaVuSans-58" transform="translate(1926.359375 0)"/>
       <use xlink:href="#DejaVuSans-3" transform="translate(1989.734375 0)"/>
       <use xlink:href="#DejaVuSans-59" transform="translate(2021.515625 0)"/>
       <use xlink:href="#DejaVuSans-44" transform="translate(2080.703125 0)"/>
       <use xlink:href="#DejaVuSans-4c" transform="translate(2141.984375 0)"/>
       <use xlink:href="#DejaVuSans-47" transform="translate(2169.765625 0)"/>
       <use xlink:href="#DejaVuSans-4f" transform="translate(2233.25 0)"/>
       <use xlink:href="#DejaVuSans-58" transform="translate(2261.03125 0)"/>
       <use xlink:href="#DejaVuSans-56" transform="translate(2324.40625 0)"/>
      </g>
     </g>
    </g>
    <g id="ytick_2">
     <g id="line2d_14">
      <g>
       <use xlink:href="#m3ad30c2f99" x="290.954687" y="356.985917" style="stroke: #000000; stroke-width: 0.8"/>
      </g>
     </g>
     <g id="text_9">
      <!-- Biogaasi ja vesiniku kasutus Eestis -->
      <g transform="translate(110.64375 360.785136) scale(0.1 -0.1)">
       <defs>
        <path id="DejaVuSans-25" d="M 1259 2228 
L 1259 519 
L 2272 519 
Q 2781 519 3026 730 
Q 3272 941 3272 1375 
Q 3272 1813 3026 2020 
Q 2781 2228 2272 2228 
L 1259 2228 
z
M 1259 4147 
L 1259 2741 
L 2194 2741 
Q 2656 2741 2882 2914 
Q 3109 3088 3109 3444 
Q 3109 3797 2882 3972 
Q 2656 4147 2194 4147 
L 1259 4147 
z
M 628 4666 
L 2241 4666 
Q 2963 4666 3353 4366 
Q 3744 4066 3744 3513 
Q 3744 3084 3544 2831 
Q 3344 2578 2956 2516 
Q 3422 2416 3680 2098 
Q 3938 1781 3938 1306 
Q 3938 681 3513 340 
Q 3088 0 2303 0 
L 628 0 
L 628 4666 
z
" transform="scale(0.015625)"/>
        <path id="DejaVuSans-28" d="M 628 4666 
L 3578 4666 
L 3578 4134 
L 1259 4134 
L 1259 2753 
L 3481 2753 
L 3481 2222 
L 1259 2222 
L 1259 531 
L 3634 531 
L 3634 0 
L 628 0 
L 628 4666 
z
" transform="scale(0.015625)"/>
       </defs>
       <use xlink:href="#DejaVuSans-25"/>
       <use xlink:href="#DejaVuSans-4c" transform="translate(68.609375 0)"/>
       <use xlink:href="#DejaVuSans-52" transform="translate(96.390625 0)"/>
       <use xlink:href="#DejaVuSans-4a" transform="translate(157.578125 0)"/>
       <use xlink:href="#DejaVuSans-44" transform="translate(221.0625 0)"/>
       <use xlink:href="#DejaVuSans-44" transform="translate(282.34375 0)"/>
       <use xlink:href="#DejaVuSans-56" transform="translate(343.625 0)"/>
       <use xlink:href="#DejaVuSans-4c" transform="translate(395.71875 0)"/>
       <use xlink:href="#DejaVuSans-3" transform="translate(423.5 0)"/>
       <use xlink:href="#DejaVuSans-4d" transform="translate(455.28125 0)"/>
       <use xlink:href="#DejaVuSans-44" transform="translate(483.0625 0)"/>
       <use xlink:href="#DejaVuSans-3" transform="translate(544.34375 0)"/>
       <use xlink:href="#DejaVuSans-59" transform="translate(576.125 0)"/>
       <use xlink:href="#DejaVuSans-48" transform="translate(635.3125 0)"/>
       <use xlink:href="#DejaVuSans-56" transform="translate(696.84375 0)"/>
       <use xlink:href="#DejaVuSans-4c" transform="translate(748.9375 0)"/>
       <use xlink:href="#DejaVuSans-51" transform="translate(776.71875 0)"/>
       <use xlink:href="#DejaVuSans-4c" transform="translate(840.09375 0)"/>
       <use xlink:href="#DejaVuSans-4e" transform="translate(867.875 0)"/>
       <use xlink:href="#DejaVuSans-58" transform="translate(922.703125 0)"/>
       <use xlink:href="#DejaVuSans-3" transform="translate(986.078125 0)"/>
       <use xlink:href="#DejaVuSans-4e" transform="translate(1017.859375 0)"/>
       <use xlink:href="#DejaVuSans-44" transform="translate(1074.015625 0)"/>
       <use xlink:href="#DejaVuSans-56" transform="translate(1135.296875 0)"/>
       <use xlink:href="#DejaVuSans-58" transform="translate(1187.390625 0)"/>
       <use xlink:href="#DejaVuSans-57" transform="translate(1250.765625 0)"/>
       <use xlink:href="#DejaVuSans-58" transform="translate(1289.96875 0)"/>
       <use xlink:href="#DejaVuSans-56" transform="translate(1353.34375 0)"/>
       <use xlink:href="#DejaVuSans-3" transform="translate(1405.4375 0)"/>
       <use xlink:href="#DejaVuSans-28" transform="translate(1437.21875 0)"/>
       <use xlink:href="#DejaVuSans-48" transform="translate(1500.40625 0)"/>
       <use xlink:href="#DejaVuSans-56" transform="translate(1561.9375 0)"/>
       <use xlink:href="#DejaVuSans-57" transform="translate(1614.03125 0)"/>
       <use xlink:href="#DejaVuSans-4c" transform="translate(1653.234375 0)"/>
       <use xlink:href="#DejaVuSans-56" transform="translate(1681.015625 0)"/>
      </g>
     </g>
    </g>
    <g id="ytick_3">
     <g id="line2d_15">
      <g>
       <use xlink:href="#m3ad30c2f99" x="290.954687" y="333.317757" style="stroke: #000000; stroke-width: 0.8"/>
      </g>
     </g>
     <g id="text_10">
      <!-- Tuuleparkide kaasamise usalduskriis -->
      <g transform="translate(101.639062 337.116975) scale(0.1 -0.1)">
       <use xlink:href="#DejaVuSans-37"/>
       <use xlink:href="#DejaVuSans-58" transform="translate(45.890625 0)"/>
       <use xlink:href="#DejaVuSans-58" transform="translate(109.265625 0)"/>
       <use xlink:href="#DejaVuSans-4f" transform="translate(172.640625 0)"/>
       <use xlink:href="#DejaVuSans-48" transform="translate(200.421875 0)"/>
       <use xlink:href="#DejaVuSans-53" transform="translate(261.953125 0)"/>
       <use xlink:href="#DejaVuSans-44" transform="translate(325.4375 0)"/>
       <use xlink:href="#DejaVuSans-55" transform="translate(386.71875 0)"/>
       <use xlink:href="#DejaVuSans-4e" transform="translate(427.828125 0)"/>
       <use xlink:href="#DejaVuSans-4c" transform="translate(485.734375 0)"/>
       <use xlink:href="#DejaVuSans-47" transform="translate(513.515625 0)"/>
       <use xlink:href="#DejaVuSans-48" transform="translate(577 0)"/>
       <use xlink:href="#DejaVuSans-3" transform="translate(638.53125 0)"/>
       <use xlink:href="#DejaVuSans-4e" transform="translate(670.3125 0)"/>
       <use xlink:href="#DejaVuSans-44" transform="translate(726.46875 0)"/>
       <use xlink:href="#DejaVuSans-44" transform="translate(787.75 0)"/>
       <use xlink:href="#DejaVuSans-56" transform="translate(849.03125 0)"/>
       <use xlink:href="#DejaVuSans-44" transform="translate(901.125 0)"/>
       <use xlink:href="#DejaVuSans-50" transform="translate(962.40625 0)"/>
       <use xlink:href="#DejaVuSans-4c" transform="translate(1059.8125 0)"/>
       <use xlink:href="#DejaVuSans-56" transform="translate(1087.59375 0)"/>
       <use xlink:href="#DejaVuSans-48" transform="translate(1139.6875 0)"/>
       <use xlink:href="#DejaVuSans-3" transform="translate(1201.21875 0)"/>
       <use xlink:href="#DejaVuSans-58" transform="translate(1233 0)"/>
       <use xlink:href="#DejaVuSans-56" transform="translate(1296.375 0)"/>
       <use xlink:href="#DejaVuSans-44" transform="translate(1348.46875 0)"/>
       <use xlink:href="#DejaVuSans-4f" transform="translate(1409.75 0)"/>
       <use xlink:href="#DejaVuSans-47" transform="translate(1437.53125 0)"/>
       <use xlink:href="#DejaVuSans-58" transform="translate(1501.015625 0)"/>
       <use xlink:href="#DejaVuSans-56" transform="translate(1564.390625 0)"/>
       <use xlink:href="#DejaVuSans-4e" transform="translate(1616.484375 0)"/>
       <use xlink:href="#DejaVuSans-55" transform="translate(1674.390625 0)"/>
       <use xlink:href="#DejaVuSans-4c" transform="translate(1715.5 0)"/>
       <use xlink:href="#DejaVuSans-4c" transform="translate(1743.28125 0)"/>
       <use xlink:href="#DejaVuSans-56" transform="translate(1771.0625 0)"/>
      </g>
     </g>
    </g>
    <g id="ytick_4">
     <g id="line2d_16">
      <g>
       <use xlink:href="#m3ad30c2f99" x="290.954687" y="309.649596" style="stroke: #000000; stroke-width: 0.8"/>
      </g>
     </g>
     <g id="text_11">
      <!-- Tuuleparkide kaasamise murede tuum -->
      <g transform="translate(92.517187 313.448815) scale(0.1 -0.1)">
       <use xlink:href="#DejaVuSans-37"/>
       <use xlink:href="#DejaVuSans-58" transform="translate(45.890625 0)"/>
       <use xlink:href="#DejaVuSans-58" transform="translate(109.265625 0)"/>
       <use xlink:href="#DejaVuSans-4f" transform="translate(172.640625 0)"/>
       <use xlink:href="#DejaVuSans-48" transform="translate(200.421875 0)"/>
       <use xlink:href="#DejaVuSans-53" transform="translate(261.953125 0)"/>
       <use xlink:href="#DejaVuSans-44" transform="translate(325.4375 0)"/>
       <use xlink:href="#DejaVuSans-55" transform="translate(386.71875 0)"/>
       <use xlink:href="#DejaVuSans-4e" transform="translate(427.828125 0)"/>
       <use xlink:href="#DejaVuSans-4c" transform="translate(485.734375 0)"/>
       <use xlink:href="#DejaVuSans-47" transform="translate(513.515625 0)"/>
       <use xlink:href="#DejaVuSans-48" transform="translate(577 0)"/>
       <use xlink:href="#DejaVuSans-3" transform="translate(638.53125 0)"/>
       <use xlink:href="#DejaVuSans-4e" transform="translate(670.3125 0)"/>
       <use xlink:href="#DejaVuSans-44" transform="translate(726.46875 0)"/>
       <use xlink:href="#DejaVuSans-44" transform="translate(787.75 0)"/>
       <use xlink:href="#DejaVuSans-56" transform="translate(849.03125 0)"/>
       <use xlink:href="#DejaVuSans-44" transform="translate(901.125 0)"/>
       <use xlink:href="#DejaVuSans-50" transform="translate(962.40625 0)"/>
       <use xlink:href="#DejaVuSans-4c" transform="translate(1059.8125 0)"/>
       <use xlink:href="#DejaVuSans-56" transform="translate(1087.59375 0)"/>
       <use xlink:href="#DejaVuSans-48" transform="translate(1139.6875 0)"/>
       <use xlink:href="#DejaVuSans-3" transform="translate(1201.21875 0)"/>
       <use xlink:href="#DejaVuSans-50" transform="translate(1233 0)"/>
       <use xlink:href="#DejaVuSans-58" transform="translate(1330.40625 0)"/>
       <use xlink:href="#DejaVuSans-55" transform="translate(1393.78125 0)"/>
       <use xlink:href="#DejaVuSans-48" transform="translate(1432.6875 0)"/>
       <use xlink:href="#DejaVuSans-47" transform="translate(1494.21875 0)"/>
       <use xlink:href="#DejaVuSans-48" transform="translate(1557.703125 0)"/>
       <use xlink:href="#DejaVuSans-3" transform="translate(1619.234375 0)"/>
       <use xlink:href="#DejaVuSans-57" transform="translate(1651.015625 0)"/>
       <use xlink:href="#DejaVuSans-58" transform="translate(1690.21875 0)"/>
       <use xlink:href="#DejaVuSans-58" transform="translate(1753.59375 0)"/>
       <use xlink:href="#DejaVuSans-50" transform="translate(1816.96875 0)"/>
      </g>
     </g>
    </g>
    <g id="ytick_5">
     <g id="line2d_17">
      <g>
       <use xlink:href="#m3ad30c2f99" x="290.954687" y="285.981435" style="stroke: #000000; stroke-width: 0.8"/>
      </g>
     </g>
     <g id="text_12">
      <!-- Tuuliku müra normid ja mõõtmised -->
      <g transform="translate(109.990625 289.86581) scale(0.1 -0.1)">
       <defs>
        <path id="DejaVuSans-be" d="M 544 1381 
L 544 3500 
L 1119 3500 
L 1119 1403 
Q 1119 906 1312 657 
Q 1506 409 1894 409 
Q 2359 409 2629 706 
Q 2900 1003 2900 1516 
L 2900 3500 
L 3475 3500 
L 3475 0 
L 2900 0 
L 2900 538 
Q 2691 219 2414 64 
Q 2138 -91 1772 -91 
Q 1169 -91 856 284 
Q 544 659 544 1381 
z
M 1991 3584 
L 1991 3584 
z
M 2278 4850 
L 2912 4850 
L 2912 4219 
L 2278 4219 
L 2278 4850 
z
M 1056 4850 
L 1690 4850 
L 1690 4219 
L 1056 4219 
L 1056 4850 
z
" transform="scale(0.015625)"/>
       </defs>
       <use xlink:href="#DejaVuSans-37"/>
       <use xlink:href="#DejaVuSans-58" transform="translate(45.890625 0)"/>
       <use xlink:href="#DejaVuSans-58" transform="translate(109.265625 0)"/>
       <use xlink:href="#DejaVuSans-4f" transform="translate(172.640625 0)"/>
       <use xlink:href="#DejaVuSans-4c" transform="translate(200.421875 0)"/>
       <use xlink:href="#DejaVuSans-4e" transform="translate(228.203125 0)"/>
       <use xlink:href="#DejaVuSans-58" transform="translate(283.03125 0)"/>
       <use xlink:href="#DejaVuSans-3" transform="translate(346.40625 0)"/>
       <use xlink:href="#DejaVuSans-50" transform="translate(378.1875 0)"/>
       <use xlink:href="#DejaVuSans-be" transform="translate(475.59375 0)"/>
       <use xlink:href="#DejaVuSans-55" transform="translate(538.96875 0)"/>
       <use xlink:href="#DejaVuSans-44" transform="translate(580.078125 0)"/>
       <use xlink:href="#DejaVuSans-3" transform="translate(641.359375 0)"/>
       <use xlink:href="#DejaVuSans-51" transform="translate(673.140625 0)"/>
       <use xlink:href="#DejaVuSans-52" transform="translate(736.515625 0)"/>
       <use xlink:href="#DejaVuSans-55" transform="translate(797.703125 0)"/>
       <use xlink:href="#DejaVuSans-50" transform="translate(837.0625 0)"/>
       <use xlink:href="#DejaVuSans-4c" transform="translate(934.46875 0)"/>
       <use xlink:href="#DejaVuSans-47" transform="translate(962.25 0)"/>
       <use xlink:href="#DejaVuSans-3" transform="translate(1025.734375 0)"/>
       <use xlink:href="#DejaVuSans-4d" transform="translate(1057.515625 0)"/>
       <use xlink:href="#DejaVuSans-44" transform="translate(1085.296875 0)"/>
       <use xlink:href="#DejaVuSans-3" transform="translate(1146.578125 0)"/>
       <use xlink:href="#DejaVuSans-50" transform="translate(1178.359375 0)"/>
       <use xlink:href="#DejaVuSans-b7" transform="translate(1275.765625 0)"/>
       <use xlink:href="#DejaVuSans-b7" transform="translate(1336.953125 0)"/>
       <use xlink:href="#DejaVuSans-57" transform="translate(1398.140625 0)"/>
       <use xlink:href="#DejaVuSans-50" transform="translate(1437.34375 0)"/>
       <use xlink:href="#DejaVuSans-4c" transform="translate(1534.75 0)"/>
       <use xlink:href="#DejaVuSans-56" transform="translate(1562.53125 0)"/>
       <use xlink:href="#DejaVuSans-48" transform="translate(1614.625 0)"/>
       <use xlink:href="#DejaVuSans-47" transform="translate(1676.15625 0)"/>
      </g>
     </g>
    </g>
    <g id="ytick_6">
     <g id="line2d_18">
      <g>
       <use xlink:href="#m3ad30c2f99" x="290.954687" y="262.313275" style="stroke: #000000; stroke-width: 0.8"/>
      </g>
     </g>
     <g id="text_13">
      <!-- Sagedusreservi hange ja liitumistingimused -->
      <g transform="translate(64.85 266.112493) scale(0.1 -0.1)">
       <defs>
        <path id="DejaVuSans-36" d="M 3425 4513 
L 3425 3897 
Q 3066 4069 2747 4153 
Q 2428 4238 2131 4238 
Q 1616 4238 1336 4038 
Q 1056 3838 1056 3469 
Q 1056 3159 1242 3001 
Q 1428 2844 1947 2747 
L 2328 2669 
Q 3034 2534 3370 2195 
Q 3706 1856 3706 1288 
Q 3706 609 3251 259 
Q 2797 -91 1919 -91 
Q 1588 -91 1214 -16 
Q 841 59 441 206 
L 441 856 
Q 825 641 1194 531 
Q 1563 422 1919 422 
Q 2459 422 2753 634 
Q 3047 847 3047 1241 
Q 3047 1584 2836 1778 
Q 2625 1972 2144 2069 
L 1759 2144 
Q 1053 2284 737 2584 
Q 422 2884 422 3419 
Q 422 4038 858 4394 
Q 1294 4750 2059 4750 
Q 2388 4750 2728 4690 
Q 3069 4631 3425 4513 
z
" transform="scale(0.015625)"/>
       </defs>
       <use xlink:href="#DejaVuSans-36"/>
       <use xlink:href="#DejaVuSans-44" transform="translate(63.484375 0)"/>
       <use xlink:href="#DejaVuSans-4a" transform="translate(124.765625 0)"/>
       <use xlink:href="#DejaVuSans-48" transform="translate(188.25 0)"/>
       <use xlink:href="#DejaVuSans-47" transform="translate(249.78125 0)"/>
       <use xlink:href="#DejaVuSans-58" transform="translate(313.265625 0)"/>
       <use xlink:href="#DejaVuSans-56" transform="translate(376.640625 0)"/>
       <use xlink:href="#DejaVuSans-55" transform="translate(428.734375 0)"/>
       <use xlink:href="#DejaVuSans-48" transform="translate(467.640625 0)"/>
       <use xlink:href="#DejaVuSans-56" transform="translate(529.171875 0)"/>
       <use xlink:href="#DejaVuSans-48" transform="translate(581.265625 0)"/>
       <use xlink:href="#DejaVuSans-55" transform="translate(642.796875 0)"/>
       <use xlink:href="#DejaVuSans-59" transform="translate(683.90625 0)"/>
       <use xlink:href="#DejaVuSans-4c" transform="translate(743.09375 0)"/>
       <use xlink:href="#DejaVuSans-3" transform="translate(770.875 0)"/>
       <use xlink:href="#DejaVuSans-4b" transform="translate(802.65625 0)"/>
       <use xlink:href="#DejaVuSans-44" transform="translate(866.03125 0)"/>
       <use xlink:href="#DejaVuSans-51" transform="translate(927.3125 0)"/>
       <use xlink:href="#DejaVuSans-4a" transform="translate(990.6875 0)"/>
       <use xlink:href="#DejaVuSans-48" transform="translate(1054.171875 0)"/>
       <use xlink:href="#DejaVuSans-3" transform="translate(1115.703125 0)"/>
       <use xlink:href="#DejaVuSans-4d" transform="translate(1147.484375 0)"/>
       <use xlink:href="#DejaVuSans-44" transform="translate(1175.265625 0)"/>
       <use xlink:href="#DejaVuSans-3" transform="translate(1236.546875 0)"/>
       <use xlink:href="#DejaVuSans-4f" transform="translate(1268.328125 0)"/>
       <use xlink:href="#DejaVuSans-4c" transform="translate(1296.109375 0)"/>
       <use xlink:href="#DejaVuSans-4c" transform="translate(1323.890625 0)"/>
       <use xlink:href="#DejaVuSans-57" transform="translate(1351.671875 0)"/>
       <use xlink:href="#DejaVuSans-58" transform="translate(1390.875 0)"/>
       <use xlink:href="#DejaVuSans-50" transform="translate(1454.25 0)"/>
       <use xlink:href="#DejaVuSans-4c" transform="translate(1551.65625 0)"/>
       <use xlink:href="#DejaVuSans-56" transform="translate(1579.4375 0)"/>
       <use xlink:href="#DejaVuSans-57" transform="translate(1631.53125 0)"/>
       <use xlink:href="#DejaVuSans-4c" transform="translate(1670.734375 0)"/>
       <use xlink:href="#DejaVuSans-51" transform="translate(1698.515625 0)"/>
       <use xlink:href="#DejaVuSans-4a" transform="translate(1761.890625 0)"/>
       <use xlink:href="#DejaVuSans-4c" transform="translate(1825.375 0)"/>
       <use xlink:href="#DejaVuSans-50" transform="translate(1853.15625 0)"/>
       <use xlink:href="#DejaVuSans-58" transform="translate(1950.5625 0)"/>
       <use xlink:href="#DejaVuSans-56" transform="translate(2013.9375 0)"/>
       <use xlink:href="#DejaVuSans-48" transform="translate(2066.03125 0)"/>
       <use xlink:href="#DejaVuSans-47" transform="translate(2127.5625 0)"/>
      </g>
     </g>
    </g>
    <g id="ytick_7">
     <g id="line2d_19">
      <g>
       <use xlink:href="#m3ad30c2f99" x="290.954687" y="238.645114" style="stroke: #000000; stroke-width: 0.8"/>
      </g>
     </g>
     <g id="text_14">
      <!-- kaugkütte elektrifitseerimine ja hinnastamine -->
      <g transform="translate(55.767187 242.444333) scale(0.1 -0.1)">
       <defs>
        <path id="DejaVuSans-13af" d="M 3431 3500 
L 3431 0 
L 2853 0 
L 2853 3053 
L 1275 3053 
L 1275 0 
L 697 0 
L 697 3053 
L 147 3053 
L 147 3500 
L 697 3500 
L 697 3744 
Q 697 4316 967 4589 
Q 1238 4863 1797 4863 
L 2375 4863 
L 2375 4384 
L 1825 4384 
Q 1516 4384 1395 4259 
Q 1275 4134 1275 3809 
L 1275 3500 
L 3431 3500 
z
M 2853 4856 
L 3431 4856 
L 3431 4128 
L 2853 4128 
L 2853 4856 
z
" transform="scale(0.015625)"/>
       </defs>
       <use xlink:href="#DejaVuSans-4e"/>
       <use xlink:href="#DejaVuSans-44" transform="translate(56.15625 0)"/>
       <use xlink:href="#DejaVuSans-58" transform="translate(117.4375 0)"/>
       <use xlink:href="#DejaVuSans-4a" transform="translate(180.8125 0)"/>
       <use xlink:href="#DejaVuSans-4e" transform="translate(244.296875 0)"/>
       <use xlink:href="#DejaVuSans-be" transform="translate(299.125 0)"/>
       <use xlink:href="#DejaVuSans-57" transform="translate(362.5 0)"/>
       <use xlink:href="#DejaVuSans-57" transform="translate(401.703125 0)"/>
       <use xlink:href="#DejaVuSans-48" transform="translate(440.90625 0)"/>
       <use xlink:href="#DejaVuSans-3" transform="translate(502.4375 0)"/>
       <use xlink:href="#DejaVuSans-48" transform="translate(534.21875 0)"/>
       <use xlink:href="#DejaVuSans-4f" transform="translate(595.75 0)"/>
       <use xlink:href="#DejaVuSans-48" transform="translate(623.53125 0)"/>
       <use xlink:href="#DejaVuSans-4e" transform="translate(685.0625 0)"/>
       <use xlink:href="#DejaVuSans-57" transform="translate(742.96875 0)"/>
       <use xlink:href="#DejaVuSans-55" transform="translate(782.171875 0)"/>
       <use xlink:href="#DejaVuSans-4c" transform="translate(823.28125 0)"/>
       <use xlink:href="#DejaVuSans-13af" transform="translate(851.0625 0)"/>
       <use xlink:href="#DejaVuSans-57" transform="translate(914.046875 0)"/>
       <use xlink:href="#DejaVuSans-56" transform="translate(953.25 0)"/>
       <use xlink:href="#DejaVuSans-48" transform="translate(1005.34375 0)"/>
       <use xlink:href="#DejaVuSans-48" transform="translate(1066.875 0)"/>
       <use xlink:href="#DejaVuSans-55" transform="translate(1128.40625 0)"/>
       <use xlink:href="#DejaVuSans-4c" transform="translate(1169.515625 0)"/>
       <use xlink:href="#DejaVuSans-50" transform="translate(1197.296875 0)"/>
       <use xlink:href="#DejaVuSans-4c" transform="translate(1294.703125 0)"/>
       <use xlink:href="#DejaVuSans-51" transform="translate(1322.484375 0)"/>
       <use xlink:href="#DejaVuSans-48" transform="translate(1385.859375 0)"/>
       <use xlink:href="#DejaVuSans-3" transform="translate(1447.390625 0)"/>
       <use xlink:href="#DejaVuSans-4d" transform="translate(1479.171875 0)"/>
       <use xlink:href="#DejaVuSans-44" transform="translate(1506.953125 0)"/>
       <use xlink:href="#DejaVuSans-3" transform="translate(1568.234375 0)"/>
       <use xlink:href="#DejaVuSans-4b" transform="translate(1600.015625 0)"/>
       <use xlink:href="#DejaVuSans-4c" transform="translate(1663.390625 0)"/>
       <use xlink:href="#DejaVuSans-51" transform="translate(1691.171875 0)"/>
       <use xlink:href="#DejaVuSans-51" transform="translate(1754.546875 0)"/>
       <use xlink:href="#DejaVuSans-44" transform="translate(1817.921875 0)"/>
       <use xlink:href="#DejaVuSans-56" transform="translate(1879.203125 0)"/>
       <use xlink:href="#DejaVuSans-57" transform="translate(1931.296875 0)"/>
       <use xlink:href="#DejaVuSans-44" transform="translate(1970.5 0)"/>
       <use xlink:href="#DejaVuSans-50" transform="translate(2031.78125 0)"/>
       <use xlink:href="#DejaVuSans-4c" transform="translate(2129.1875 0)"/>
       <use xlink:href="#DejaVuSans-51" transform="translate(2156.96875 0)"/>
       <use xlink:href="#DejaVuSans-48" transform="translate(2220.34375 0)"/>
      </g>
     </g>
    </g>
    <g id="ytick_8">
     <g id="line2d_20">
      <g>
       <use xlink:href="#m3ad30c2f99" x="290.954687" y="214.976953" style="stroke: #000000; stroke-width: 0.8"/>
      </g>
     </g>
     <g id="text_15">
      <!-- Eesti elektritarbimise kasv ja puudujääk -->
      <g transform="translate(83.698437 218.776172) scale(0.1 -0.1)">
       <defs>
        <path id="DejaVuSans-45" d="M 3116 1747 
Q 3116 2381 2855 2742 
Q 2594 3103 2138 3103 
Q 1681 3103 1420 2742 
Q 1159 2381 1159 1747 
Q 1159 1113 1420 752 
Q 1681 391 2138 391 
Q 2594 391 2855 752 
Q 3116 1113 3116 1747 
z
M 1159 2969 
Q 1341 3281 1617 3432 
Q 1894 3584 2278 3584 
Q 2916 3584 3314 3078 
Q 3713 2572 3713 1747 
Q 3713 922 3314 415 
Q 2916 -91 2278 -91 
Q 1894 -91 1617 61 
Q 1341 213 1159 525 
L 1159 0 
L 581 0 
L 581 4863 
L 1159 4863 
L 1159 2969 
z
" transform="scale(0.015625)"/>
       </defs>
       <use xlink:href="#DejaVuSans-28"/>
       <use xlink:href="#DejaVuSans-48" transform="translate(63.1875 0)"/>
       <use xlink:href="#DejaVuSans-56" transform="translate(124.71875 0)"/>
       <use xlink:href="#DejaVuSans-57" transform="translate(176.8125 0)"/>
       <use xlink:href="#DejaVuSans-4c" transform="translate(216.015625 0)"/>
       <use xlink:href="#DejaVuSans-3" transform="translate(243.796875 0)"/>
       <use xlink:href="#DejaVuSans-48" transform="translate(275.578125 0)"/>
       <use xlink:href="#DejaVuSans-4f" transform="translate(337.109375 0)"/>
       <use xlink:href="#DejaVuSans-48" transform="translate(364.890625 0)"/>
       <use xlink:href="#DejaVuSans-4e" transform="translate(426.421875 0)"/>
       <use xlink:href="#DejaVuSans-57" transform="translate(484.328125 0)"/>
       <use xlink:href="#DejaVuSans-55" transform="translate(523.53125 0)"/>
       <use xlink:href="#DejaVuSans-4c" transform="translate(564.640625 0)"/>
       <use xlink:href="#DejaVuSans-57" transform="translate(592.421875 0)"/>
       <use xlink:href="#DejaVuSans-44" transform="translate(631.625 0)"/>
       <use xlink:href="#DejaVuSans-55" transform="translate(692.90625 0)"/>
       <use xlink:href="#DejaVuSans-45" transform="translate(734.015625 0)"/>
       <use xlink:href="#DejaVuSans-4c" transform="translate(797.5 0)"/>
       <use xlink:href="#DejaVuSans-50" transform="translate(825.28125 0)"/>
       <use xlink:href="#DejaVuSans-4c" transform="translate(922.6875 0)"/>
       <use xlink:href="#DejaVuSans-56" transform="translate(950.46875 0)"/>
       <use xlink:href="#DejaVuSans-48" transform="translate(1002.5625 0)"/>
       <use xlink:href="#DejaVuSans-3" transform="translate(1064.09375 0)"/>
       <use xlink:href="#DejaVuSans-4e" transform="translate(1095.875 0)"/>
       <use xlink:href="#DejaVuSans-44" transform="translate(1152.03125 0)"/>
       <use xlink:href="#DejaVuSans-56" transform="translate(1213.3125 0)"/>
       <use xlink:href="#DejaVuSans-59" transform="translate(1265.40625 0)"/>
       <use xlink:href="#DejaVuSans-3" transform="translate(1324.59375 0)"/>
       <use xlink:href="#DejaVuSans-4d" transform="translate(1356.375 0)"/>
       <use xlink:href="#DejaVuSans-44" transform="translate(1384.15625 0)"/>
       <use xlink:href="#DejaVuSans-3" transform="translate(1445.4375 0)"/>
       <use xlink:href="#DejaVuSans-53" transform="translate(1477.21875 0)"/>
       <use xlink:href="#DejaVuSans-58" transform="translate(1540.703125 0)"/>
       <use xlink:href="#DejaVuSans-58" transform="translate(1604.078125 0)"/>
       <use xlink:href="#DejaVuSans-47" transform="translate(1667.453125 0)"/>
       <use xlink:href="#DejaVuSans-58" transform="translate(1730.9375 0)"/>
       <use xlink:href="#DejaVuSans-4d" transform="translate(1794.3125 0)"/>
       <use xlink:href="#DejaVuSans-a6" transform="translate(1822.09375 0)"/>
       <use xlink:href="#DejaVuSans-a6" transform="translate(1883.375 0)"/>
       <use xlink:href="#DejaVuSans-4e" transform="translate(1944.65625 0)"/>
      </g>
     </g>
    </g>
    <g id="ytick_9">
     <g id="line2d_21">
      <g>
       <use xlink:href="#m3ad30c2f99" x="290.954687" y="191.308792" style="stroke: #000000; stroke-width: 0.8"/>
      </g>
     </g>
     <g id="text_16">
      <!-- Juhitavate elektrivõimsuste vajadus Eestis -->
      <g transform="translate(72.340625 195.193167) scale(0.1 -0.1)">
       <defs>
        <path id="DejaVuSans-2d" d="M 628 4666 
L 1259 4666 
L 1259 325 
Q 1259 -519 939 -900 
Q 619 -1281 -91 -1281 
L -331 -1281 
L -331 -750 
L -134 -750 
Q 284 -750 456 -515 
Q 628 -281 628 325 
L 628 4666 
z
" transform="scale(0.015625)"/>
       </defs>
       <use xlink:href="#DejaVuSans-2d"/>
       <use xlink:href="#DejaVuSans-58" transform="translate(29.5 0)"/>
       <use xlink:href="#DejaVuSans-4b" transform="translate(92.875 0)"/>
       <use xlink:href="#DejaVuSans-4c" transform="translate(156.25 0)"/>
       <use xlink:href="#DejaVuSans-57" transform="translate(184.03125 0)"/>
       <use xlink:href="#DejaVuSans-44" transform="translate(223.234375 0)"/>
       <use xlink:href="#DejaVuSans-59" transform="translate(284.515625 0)"/>
       <use xlink:href="#DejaVuSans-44" transform="translate(343.703125 0)"/>
       <use xlink:href="#DejaVuSans-57" transform="translate(404.984375 0)"/>
       <use xlink:href="#DejaVuSans-48" transform="translate(444.1875 0)"/>
       <use xlink:href="#DejaVuSans-3" transform="translate(505.71875 0)"/>
       <use xlink:href="#DejaVuSans-48" transform="translate(537.5 0)"/>
       <use xlink:href="#DejaVuSans-4f" transform="translate(599.03125 0)"/>
       <use xlink:href="#DejaVuSans-48" transform="translate(626.8125 0)"/>
       <use xlink:href="#DejaVuSans-4e" transform="translate(688.34375 0)"/>
       <use xlink:href="#DejaVuSans-57" transform="translate(746.25 0)"/>
       <use xlink:href="#DejaVuSans-55" transform="translate(785.453125 0)"/>
       <use xlink:href="#DejaVuSans-4c" transform="translate(826.5625 0)"/>
       <use xlink:href="#DejaVuSans-59" transform="translate(854.34375 0)"/>
       <use xlink:href="#DejaVuSans-b7" transform="translate(913.53125 0)"/>
       <use xlink:href="#DejaVuSans-4c" transform="translate(974.71875 0)"/>
       <use xlink:href="#DejaVuSans-50" transform="translate(1002.5 0)"/>
       <use xlink:href="#DejaVuSans-56" transform="translate(1099.90625 0)"/>
       <use xlink:href="#DejaVuSans-58" transform="translate(1152 0)"/>
       <use xlink:href="#DejaVuSans-56" transform="translate(1215.375 0)"/>
       <use xlink:href="#DejaVuSans-57" transform="translate(1267.46875 0)"/>
       <use xlink:href="#DejaVuSans-48" transform="translate(1306.671875 0)"/>
       <use xlink:href="#DejaVuSans-3" transform="translate(1368.203125 0)"/>
       <use xlink:href="#DejaVuSans-59" transform="translate(1399.984375 0)"/>
       <use xlink:href="#DejaVuSans-44" transform="translate(1459.171875 0)"/>
       <use xlink:href="#DejaVuSans-4d" transform="translate(1520.453125 0)"/>
       <use xlink:href="#DejaVuSans-44" transform="translate(1548.234375 0)"/>
       <use xlink:href="#DejaVuSans-47" transform="translate(1609.515625 0)"/>
       <use xlink:href="#DejaVuSans-58" transform="translate(1673 0)"/>
       <use xlink:href="#DejaVuSans-56" transform="translate(1736.375 0)"/>
       <use xlink:href="#DejaVuSans-3" transform="translate(1788.46875 0)"/>
       <use xlink:href="#DejaVuSans-28" transform="translate(1820.25 0)"/>
       <use xlink:href="#DejaVuSans-48" transform="translate(1883.4375 0)"/>
       <use xlink:href="#DejaVuSans-56" transform="translate(1944.96875 0)"/>
       <use xlink:href="#DejaVuSans-57" transform="translate(1997.0625 0)"/>
       <use xlink:href="#DejaVuSans-4c" transform="translate(2036.265625 0)"/>
       <use xlink:href="#DejaVuSans-56" transform="translate(2064.046875 0)"/>
      </g>
     </g>
    </g>
    <g id="ytick_10">
     <g id="line2d_22">
      <g>
       <use xlink:href="#m3ad30c2f99" x="290.954687" y="167.640632" style="stroke: #000000; stroke-width: 0.8"/>
      </g>
     </g>
     <g id="text_17">
      <!-- Eleringi vähempakkumised uute elektrivõimsuste jaoks -->
      <g transform="translate(7.2 171.525007) scale(0.1 -0.1)">
       <use xlink:href="#DejaVuSans-28"/>
       <use xlink:href="#DejaVuSans-4f" transform="translate(63.1875 0)"/>
       <use xlink:href="#DejaVuSans-48" transform="translate(90.96875 0)"/>
       <use xlink:href="#DejaVuSans-55" transform="translate(152.5 0)"/>
       <use xlink:href="#DejaVuSans-4c" transform="translate(193.609375 0)"/>
       <use xlink:href="#DejaVuSans-51" transform="translate(221.390625 0)"/>
       <use xlink:href="#DejaVuSans-4a" transform="translate(284.765625 0)"/>
       <use xlink:href="#DejaVuSans-4c" transform="translate(348.25 0)"/>
       <use xlink:href="#DejaVuSans-3" transform="translate(376.03125 0)"/>
       <use xlink:href="#DejaVuSans-59" transform="translate(407.8125 0)"/>
       <use xlink:href="#DejaVuSans-a6" transform="translate(467 0)"/>
       <use xlink:href="#DejaVuSans-4b" transform="translate(528.28125 0)"/>
       <use xlink:href="#DejaVuSans-48" transform="translate(591.65625 0)"/>
       <use xlink:href="#DejaVuSans-50" transform="translate(653.1875 0)"/>
       <use xlink:href="#DejaVuSans-53" transform="translate(750.59375 0)"/>
       <use xlink:href="#DejaVuSans-44" transform="translate(814.078125 0)"/>
       <use xlink:href="#DejaVuSans-4e" transform="translate(875.359375 0)"/>
       <use xlink:href="#DejaVuSans-4e" transform="translate(933.265625 0)"/>
       <use xlink:href="#DejaVuSans-58" transform="translate(988.09375 0)"/>
       <use xlink:href="#DejaVuSans-50" transform="translate(1051.46875 0)"/>
       <use xlink:href="#DejaVuSans-4c" transform="translate(1148.875 0)"/>
       <use xlink:href="#DejaVuSans-56" transform="translate(1176.65625 0)"/>
       <use xlink:href="#DejaVuSans-48" transform="translate(1228.75 0)"/>
       <use xlink:href="#DejaVuSans-47" transform="translate(1290.28125 0)"/>
       <use xlink:href="#DejaVuSans-3" transform="translate(1353.765625 0)"/>
       <use xlink:href="#DejaVuSans-58" transform="translate(1385.546875 0)"/>
       <use xlink:href="#DejaVuSans-58" transform="translate(1448.921875 0)"/>
       <use xlink:href="#DejaVuSans-57" transform="translate(1512.296875 0)"/>
       <use xlink:href="#DejaVuSans-48" transform="translate(1551.5 0)"/>
       <use xlink:href="#DejaVuSans-3" transform="translate(1613.03125 0)"/>
       <use xlink:href="#DejaVuSans-48" transform="translate(1644.8125 0)"/>
       <use xlink:href="#DejaVuSans-4f" transform="translate(1706.34375 0)"/>
       <use xlink:href="#DejaVuSans-48" transform="translate(1734.125 0)"/>
       <use xlink:href="#DejaVuSans-4e" transform="translate(1795.65625 0)"/>
       <use xlink:href="#DejaVuSans-57" transform="translate(1853.5625 0)"/>
       <use xlink:href="#DejaVuSans-55" transform="translate(1892.765625 0)"/>
       <use xlink:href="#DejaVuSans-4c" transform="translate(1933.875 0)"/>
       <use xlink:href="#DejaVuSans-59" transform="translate(1961.65625 0)"/>
       <use xlink:href="#DejaVuSans-b7" transform="translate(2020.84375 0)"/>
       <use xlink:href="#DejaVuSans-4c" transform="translate(2082.03125 0)"/>
       <use xlink:href="#DejaVuSans-50" transform="translate(2109.8125 0)"/>
       <use xlink:href="#DejaVuSans-56" transform="translate(2207.21875 0)"/>
       <use xlink:href="#DejaVuSans-58" transform="translate(2259.3125 0)"/>
       <use xlink:href="#DejaVuSans-56" transform="translate(2322.6875 0)"/>
       <use xlink:href="#DejaVuSans-57" transform="translate(2374.78125 0)"/>
       <use xlink:href="#DejaVuSans-48" transform="translate(2413.984375 0)"/>
       <use xlink:href="#DejaVuSans-3" transform="translate(2475.515625 0)"/>
       <use xlink:href="#DejaVuSans-4d" transform="translate(2507.296875 0)"/>
       <use xlink:href="#DejaVuSans-44" transform="translate(2535.078125 0)"/>
       <use xlink:href="#DejaVuSans-52" transform="translate(2596.359375 0)"/>
       <use xlink:href="#DejaVuSans-4e" transform="translate(2657.546875 0)"/>
       <use xlink:href="#DejaVuSans-56" transform="translate(2715.453125 0)"/>
      </g>
     </g>
    </g>
    <g id="ytick_11">
     <g id="line2d_23">
      <g>
       <use xlink:href="#m3ad30c2f99" x="290.954687" y="143.972471" style="stroke: #000000; stroke-width: 0.8"/>
      </g>
     </g>
     <g id="text_18">
      <!-- Tuuleparkide rahvaalgatuste ja alguspunkti vaidlus -->
      <g transform="translate(29.123437 147.77169) scale(0.1 -0.1)">
       <use xlink:href="#DejaVuSans-37"/>
       <use xlink:href="#DejaVuSans-58" transform="translate(45.890625 0)"/>
       <use xlink:href="#DejaVuSans-58" transform="translate(109.265625 0)"/>
       <use xlink:href="#DejaVuSans-4f" transform="translate(172.640625 0)"/>
       <use xlink:href="#DejaVuSans-48" transform="translate(200.421875 0)"/>
       <use xlink:href="#DejaVuSans-53" transform="translate(261.953125 0)"/>
       <use xlink:href="#DejaVuSans-44" transform="translate(325.4375 0)"/>
       <use xlink:href="#DejaVuSans-55" transform="translate(386.71875 0)"/>
       <use xlink:href="#DejaVuSans-4e" transform="translate(427.828125 0)"/>
       <use xlink:href="#DejaVuSans-4c" transform="translate(485.734375 0)"/>
       <use xlink:href="#DejaVuSans-47" transform="translate(513.515625 0)"/>
       <use xlink:href="#DejaVuSans-48" transform="translate(577 0)"/>
       <use xlink:href="#DejaVuSans-3" transform="translate(638.53125 0)"/>
       <use xlink:href="#DejaVuSans-55" transform="translate(670.3125 0)"/>
       <use xlink:href="#DejaVuSans-44" transform="translate(711.421875 0)"/>
       <use xlink:href="#DejaVuSans-4b" transform="translate(772.703125 0)"/>
       <use xlink:href="#DejaVuSans-59" transform="translate(836.078125 0)"/>
       <use xlink:href="#DejaVuSans-44" transform="translate(895.265625 0)"/>
       <use xlink:href="#DejaVuSans-44" transform="translate(956.546875 0)"/>
       <use xlink:href="#DejaVuSans-4f" transform="translate(1017.828125 0)"/>
       <use xlink:href="#DejaVuSans-4a" transform="translate(1045.609375 0)"/>
       <use xlink:href="#DejaVuSans-44" transform="translate(1109.09375 0)"/>
       <use xlink:href="#DejaVuSans-57" transform="translate(1170.375 0)"/>
       <use xlink:href="#DejaVuSans-58" transform="translate(1209.578125 0)"/>
       <use xlink:href="#DejaVuSans-56" transform="translate(1272.953125 0)"/>
       <use xlink:href="#DejaVuSans-57" transform="translate(1325.046875 0)"/>
       <use xlink:href="#DejaVuSans-48" transform="translate(1364.25 0)"/>
       <use xlink:href="#DejaVuSans-3" transform="translate(1425.78125 0)"/>
       <use xlink:href="#DejaVuSans-4d" transform="translate(1457.5625 0)"/>
       <use xlink:href="#DejaVuSans-44" transform="translate(1485.34375 0)"/>
       <use xlink:href="#DejaVuSans-3" transform="translate(1546.625 0)"/>
       <use xlink:href="#DejaVuSans-44" transform="translate(1578.40625 0)"/>
       <use xlink:href="#DejaVuSans-4f" transform="translate(1639.6875 0)"/>
       <use xlink:href="#DejaVuSans-4a" transform="translate(1667.46875 0)"/>
       <use xlink:href="#DejaVuSans-58" transform="translate(1730.953125 0)"/>
       <use xlink:href="#DejaVuSans-56" transform="translate(1794.328125 0)"/>
       <use xlink:href="#DejaVuSans-53" transform="translate(1846.421875 0)"/>
       <use xlink:href="#DejaVuSans-58" transform="translate(1909.90625 0)"/>
       <use xlink:href="#DejaVuSans-51" transform="translate(1973.28125 0)"/>
       <use xlink:href="#DejaVuSans-4e" transform="translate(2036.65625 0)"/>
       <use xlink:href="#DejaVuSans-57" transform="translate(2094.5625 0)"/>
       <use xlink:href="#DejaVuSans-4c" transform="translate(2133.765625 0)"/>
       <use xlink:href="#DejaVuSans-3" transform="translate(2161.546875 0)"/>
       <use xlink:href="#DejaVuSans-59" transform="translate(2193.328125 0)"/>
       <use xlink:href="#DejaVuSans-44" transform="translate(2252.515625 0)"/>
       <use xlink:href="#DejaVuSans-4c" transform="translate(2313.796875 0)"/>
       <use xlink:href="#DejaVuSans-47" transform="translate(2341.578125 0)"/>
       <use xlink:href="#DejaVuSans-4f" transform="translate(2405.0625 0)"/>
       <use xlink:href="#DejaVuSans-58" transform="translate(2432.84375 0)"/>
       <use xlink:href="#DejaVuSans-56" transform="translate(2496.21875 0)"/>
      </g>
     </g>
    </g>
    <g id="ytick_12">
     <g id="line2d_24">
      <g>
       <use xlink:href="#m3ad30c2f99" x="290.954687" y="120.30431" style="stroke: #000000; stroke-width: 0.8"/>
      </g>
     </g>
     <g id="text_19">
      <!-- Kaugkütte hinna kujunemine ja püsitasu -->
      <g transform="translate(82.701562 124.103529) scale(0.1 -0.1)">
       <defs>
        <path id="DejaVuSans-2e" d="M 628 4666 
L 1259 4666 
L 1259 2694 
L 3353 4666 
L 4166 4666 
L 1850 2491 
L 4331 0 
L 3500 0 
L 1259 2247 
L 1259 0 
L 628 0 
L 628 4666 
z
" transform="scale(0.015625)"/>
       </defs>
       <use xlink:href="#DejaVuSans-2e"/>
       <use xlink:href="#DejaVuSans-44" transform="translate(63.828125 0)"/>
       <use xlink:href="#DejaVuSans-58" transform="translate(125.109375 0)"/>
       <use xlink:href="#DejaVuSans-4a" transform="translate(188.484375 0)"/>
       <use xlink:href="#DejaVuSans-4e" transform="translate(251.96875 0)"/>
       <use xlink:href="#DejaVuSans-be" transform="translate(306.796875 0)"/>
       <use xlink:href="#DejaVuSans-57" transform="translate(370.171875 0)"/>
       <use xlink:href="#DejaVuSans-57" transform="translate(409.375 0)"/>
       <use xlink:href="#DejaVuSans-48" transform="translate(448.578125 0)"/>
       <use xlink:href="#DejaVuSans-3" transform="translate(510.109375 0)"/>
       <use xlink:href="#DejaVuSans-4b" transform="translate(541.890625 0)"/>
       <use xlink:href="#DejaVuSans-4c" transform="translate(605.265625 0)"/>
       <use xlink:href="#DejaVuSans-51" transform="translate(633.046875 0)"/>
       <use xlink:href="#DejaVuSans-51" transform="translate(696.421875 0)"/>
       <use xlink:href="#DejaVuSans-44" transform="translate(759.796875 0)"/>
       <use xlink:href="#DejaVuSans-3" transform="translate(821.078125 0)"/>
       <use xlink:href="#DejaVuSans-4e" transform="translate(852.859375 0)"/>
       <use xlink:href="#DejaVuSans-58" transform="translate(907.6875 0)"/>
       <use xlink:href="#DejaVuSans-4d" transform="translate(971.0625 0)"/>
       <use xlink:href="#DejaVuSans-58" transform="translate(998.84375 0)"/>
       <use xlink:href="#DejaVuSans-51" transform="translate(1062.21875 0)"/>
       <use xlink:href="#DejaVuSans-48" transform="translate(1125.59375 0)"/>
       <use xlink:href="#DejaVuSans-50" transform="translate(1187.125 0)"/>
       <use xlink:href="#DejaVuSans-4c" transform="translate(1284.53125 0)"/>
       <use xlink:href="#DejaVuSans-51" transform="translate(1312.3125 0)"/>
       <use xlink:href="#DejaVuSans-48" transform="translate(1375.6875 0)"/>
       <use xlink:href="#DejaVuSans-3" transform="translate(1437.21875 0)"/>
       <use xlink:href="#DejaVuSans-4d" transform="translate(1469 0)"/>
       <use xlink:href="#DejaVuSans-44" transform="translate(1496.78125 0)"/>
       <use xlink:href="#DejaVuSans-3" transform="translate(1558.0625 0)"/>
       <use xlink:href="#DejaVuSans-53" transform="translate(1589.84375 0)"/>
       <use xlink:href="#DejaVuSans-be" transform="translate(1653.328125 0)"/>
       <use xlink:href="#DejaVuSans-56" transform="translate(1716.703125 0)"/>
       <use xlink:href="#DejaVuSans-4c" transform="translate(1768.796875 0)"/>
       <use xlink:href="#DejaVuSans-57" transform="translate(1796.578125 0)"/>
       <use xlink:href="#DejaVuSans-44" transform="translate(1835.78125 0)"/>
       <use xlink:href="#DejaVuSans-56" transform="translate(1897.0625 0)"/>
       <use xlink:href="#DejaVuSans-58" transform="translate(1949.15625 0)"/>
      </g>
     </g>
    </g>
    <g id="ytick_13">
     <g id="line2d_25">
      <g>
       <use xlink:href="#m3ad30c2f99" x="290.954687" y="96.63615" style="stroke: #000000; stroke-width: 0.8"/>
      </g>
     </g>
     <g id="text_20">
      <!-- andmekeskuste elektri- ja võrgulahendus -->
      <g transform="translate(77.325 100.520525) scale(0.1 -0.1)">
       <defs>
        <path id="DejaVuSans-10" d="M 313 2009 
L 1997 2009 
L 1997 1497 
L 313 1497 
L 313 2009 
z
" transform="scale(0.015625)"/>
       </defs>
       <use xlink:href="#DejaVuSans-44"/>
       <use xlink:href="#DejaVuSans-51" transform="translate(61.28125 0)"/>
       <use xlink:href="#DejaVuSans-47" transform="translate(124.65625 0)"/>
       <use xlink:href="#DejaVuSans-50" transform="translate(188.140625 0)"/>
       <use xlink:href="#DejaVuSans-48" transform="translate(285.546875 0)"/>
       <use xlink:href="#DejaVuSans-4e" transform="translate(347.078125 0)"/>
       <use xlink:href="#DejaVuSans-48" transform="translate(401.421875 0)"/>
       <use xlink:href="#DejaVuSans-56" transform="translate(462.953125 0)"/>
       <use xlink:href="#DejaVuSans-4e" transform="translate(515.046875 0)"/>
       <use xlink:href="#DejaVuSans-58" transform="translate(569.875 0)"/>
       <use xlink:href="#DejaVuSans-56" transform="translate(633.25 0)"/>
       <use xlink:href="#DejaVuSans-57" transform="translate(685.34375 0)"/>
       <use xlink:href="#DejaVuSans-48" transform="translate(724.546875 0)"/>
       <use xlink:href="#DejaVuSans-3" transform="translate(786.078125 0)"/>
       <use xlink:href="#DejaVuSans-48" transform="translate(817.859375 0)"/>
       <use xlink:href="#DejaVuSans-4f" transform="translate(879.390625 0)"/>
       <use xlink:href="#DejaVuSans-48" transform="translate(907.171875 0)"/>
       <use xlink:href="#DejaVuSans-4e" transform="translate(968.703125 0)"/>
       <use xlink:href="#DejaVuSans-57" transform="translate(1026.609375 0)"/>
       <use xlink:href="#DejaVuSans-55" transform="translate(1065.8125 0)"/>
       <use xlink:href="#DejaVuSans-4c" transform="translate(1106.921875 0)"/>
       <use xlink:href="#DejaVuSans-10" transform="translate(1134.703125 0)"/>
       <use xlink:href="#DejaVuSans-3" transform="translate(1170.78125 0)"/>
       <use xlink:href="#DejaVuSans-4d" transform="translate(1202.5625 0)"/>
       <use xlink:href="#DejaVuSans-44" transform="translate(1230.34375 0)"/>
       <use xlink:href="#DejaVuSans-3" transform="translate(1291.625 0)"/>
       <use xlink:href="#DejaVuSans-59" transform="translate(1323.40625 0)"/>
       <use xlink:href="#DejaVuSans-b7" transform="translate(1382.59375 0)"/>
       <use xlink:href="#DejaVuSans-55" transform="translate(1443.78125 0)"/>
       <use xlink:href="#DejaVuSans-4a" transform="translate(1483.140625 0)"/>
       <use xlink:href="#DejaVuSans-58" transform="translate(1546.625 0)"/>
       <use xlink:href="#DejaVuSans-4f" transform="translate(1610 0)"/>
       <use xlink:href="#DejaVuSans-44" transform="translate(1637.78125 0)"/>
       <use xlink:href="#DejaVuSans-4b" transform="translate(1699.0625 0)"/>
       <use xlink:href="#DejaVuSans-48" transform="translate(1762.4375 0)"/>
       <use xlink:href="#DejaVuSans-51" transform="translate(1823.96875 0)"/>
       <use xlink:href="#DejaVuSans-47" transform="translate(1887.34375 0)"/>
       <use xlink:href="#DejaVuSans-58" transform="translate(1950.828125 0)"/>
       <use xlink:href="#DejaVuSans-56" transform="translate(2014.203125 0)"/>
      </g>
     </g>
    </g>
    <g id="ytick_14">
     <g id="line2d_26">
      <g>
       <use xlink:href="#m3ad30c2f99" x="290.954687" y="72.967989" style="stroke: #000000; stroke-width: 0.8"/>
      </g>
     </g>
     <g id="text_21">
      <!-- Elektribörsi hinnakujunduse jaotumine -->
      <g transform="translate(91.65 76.767208) scale(0.1 -0.1)">
       <defs>
        <path id="DejaVuSans-b8" d="M 1959 3097 
Q 1497 3097 1228 2736 
Q 959 2375 959 1747 
Q 959 1119 1226 758 
Q 1494 397 1959 397 
Q 2419 397 2687 759 
Q 2956 1122 2956 1747 
Q 2956 2369 2687 2733 
Q 2419 3097 1959 3097 
z
M 1959 3584 
Q 2709 3584 3137 3096 
Q 3566 2609 3566 1747 
Q 3566 888 3137 398 
Q 2709 -91 1959 -91 
Q 1206 -91 779 398 
Q 353 888 353 1747 
Q 353 2609 779 3096 
Q 1206 3584 1959 3584 
z
M 2253 4850 
L 2887 4850 
L 2887 4219 
L 2253 4219 
L 2253 4850 
z
M 1031 4850 
L 1665 4850 
L 1665 4219 
L 1031 4219 
L 1031 4850 
z
" transform="scale(0.015625)"/>
       </defs>
       <use xlink:href="#DejaVuSans-28"/>
       <use xlink:href="#DejaVuSans-4f" transform="translate(63.1875 0)"/>
       <use xlink:href="#DejaVuSans-48" transform="translate(90.96875 0)"/>
       <use xlink:href="#DejaVuSans-4e" transform="translate(152.5 0)"/>
       <use xlink:href="#DejaVuSans-57" transform="translate(210.40625 0)"/>
       <use xlink:href="#DejaVuSans-55" transform="translate(249.609375 0)"/>
       <use xlink:href="#DejaVuSans-4c" transform="translate(290.71875 0)"/>
       <use xlink:href="#DejaVuSans-45" transform="translate(318.5 0)"/>
       <use xlink:href="#DejaVuSans-b8" transform="translate(381.984375 0)"/>
       <use xlink:href="#DejaVuSans-55" transform="translate(443.171875 0)"/>
       <use xlink:href="#DejaVuSans-56" transform="translate(484.28125 0)"/>
       <use xlink:href="#DejaVuSans-4c" transform="translate(536.375 0)"/>
       <use xlink:href="#DejaVuSans-3" transform="translate(564.15625 0)"/>
       <use xlink:href="#DejaVuSans-4b" transform="translate(595.9375 0)"/>
       <use xlink:href="#DejaVuSans-4c" transform="translate(659.3125 0)"/>
       <use xlink:href="#DejaVuSans-51" transform="translate(687.09375 0)"/>
       <use xlink:href="#DejaVuSans-51" transform="translate(750.46875 0)"/>
       <use xlink:href="#DejaVuSans-44" transform="translate(813.84375 0)"/>
       <use xlink:href="#DejaVuSans-4e" transform="translate(875.125 0)"/>
       <use xlink:href="#DejaVuSans-58" transform="translate(929.953125 0)"/>
       <use xlink:href="#DejaVuSans-4d" transform="translate(993.328125 0)"/>
       <use xlink:href="#DejaVuSans-58" transform="translate(1021.109375 0)"/>
       <use xlink:href="#DejaVuSans-51" transform="translate(1084.484375 0)"/>
       <use xlink:href="#DejaVuSans-47" transform="translate(1147.859375 0)"/>
       <use xlink:href="#DejaVuSans-58" transform="translate(1211.34375 0)"/>
       <use xlink:href="#DejaVuSans-56" transform="translate(1274.71875 0)"/>
       <use xlink:href="#DejaVuSans-48" transform="translate(1326.8125 0)"/>
       <use xlink:href="#DejaVuSans-3" transform="translate(1388.34375 0)"/>
       <use xlink:href="#DejaVuSans-4d" transform="translate(1420.125 0)"/>
       <use xlink:href="#DejaVuSans-44" transform="translate(1447.90625 0)"/>
       <use xlink:href="#DejaVuSans-52" transform="translate(1509.1875 0)"/>
       <use xlink:href="#DejaVuSans-57" transform="translate(1570.375 0)"/>
       <use xlink:href="#DejaVuSans-58" transform="translate(1609.578125 0)"/>
       <use xlink:href="#DejaVuSans-50" transform="translate(1672.953125 0)"/>
       <use xlink:href="#DejaVuSans-4c" transform="translate(1770.359375 0)"/>
       <use xlink:href="#DejaVuSans-51" transform="translate(1798.140625 0)"/>
       <use xlink:href="#DejaVuSans-48" transform="translate(1861.515625 0)"/>
      </g>
     </g>
    </g>
    <g id="ytick_15">
     <g id="line2d_27">
      <g>
       <use xlink:href="#m3ad30c2f99" x="290.954687" y="49.299828" style="stroke: #000000; stroke-width: 0.8"/>
      </g>
     </g>
     <g id="text_22">
      <!-- Eesti elektritarbimise ja tootmise sihid -->
      <g transform="translate(91.69375 53.099047) scale(0.1 -0.1)">
       <use xlink:href="#DejaVuSans-28"/>
       <use xlink:href="#DejaVuSans-48" transform="translate(63.1875 0)"/>
       <use xlink:href="#DejaVuSans-56" transform="translate(124.71875 0)"/>
       <use xlink:href="#DejaVuSans-57" transform="translate(176.8125 0)"/>
       <use xlink:href="#DejaVuSans-4c" transform="translate(216.015625 0)"/>
       <use xlink:href="#DejaVuSans-3" transform="translate(243.796875 0)"/>
       <use xlink:href="#DejaVuSans-48" transform="translate(275.578125 0)"/>
       <use xlink:href="#DejaVuSans-4f" transform="translate(337.109375 0)"/>
       <use xlink:href="#DejaVuSans-48" transform="translate(364.890625 0)"/>
       <use xlink:href="#DejaVuSans-4e" transform="translate(426.421875 0)"/>
       <use xlink:href="#DejaVuSans-57" transform="translate(484.328125 0)"/>
       <use xlink:href="#DejaVuSans-55" transform="translate(523.53125 0)"/>
       <use xlink:href="#DejaVuSans-4c" transform="translate(564.640625 0)"/>
       <use xlink:href="#DejaVuSans-57" transform="translate(592.421875 0)"/>
       <use xlink:href="#DejaVuSans-44" transform="translate(631.625 0)"/>
       <use xlink:href="#DejaVuSans-55" transform="translate(692.90625 0)"/>
       <use xlink:href="#DejaVuSans-45" transform="translate(734.015625 0)"/>
       <use xlink:href="#DejaVuSans-4c" transform="translate(797.5 0)"/>
       <use xlink:href="#DejaVuSans-50" transform="translate(825.28125 0)"/>
       <use xlink:href="#DejaVuSans-4c" transform="translate(922.6875 0)"/>
       <use xlink:href="#DejaVuSans-56" transform="translate(950.46875 0)"/>
       <use xlink:href="#DejaVuSans-48" transform="translate(1002.5625 0)"/>
       <use xlink:href="#DejaVuSans-3" transform="translate(1064.09375 0)"/>
       <use xlink:href="#DejaVuSans-4d" transform="translate(1095.875 0)"/>
       <use xlink:href="#DejaVuSans-44" transform="translate(1123.65625 0)"/>
       <use xlink:href="#DejaVuSans-3" transform="translate(1184.9375 0)"/>
       <use xlink:href="#DejaVuSans-57" transform="translate(1216.71875 0)"/>
       <use xlink:href="#DejaVuSans-52" transform="translate(1255.921875 0)"/>
       <use xlink:href="#DejaVuSans-52" transform="translate(1317.109375 0)"/>
       <use xlink:href="#DejaVuSans-57" transform="translate(1378.296875 0)"/>
       <use xlink:href="#DejaVuSans-50" transform="translate(1417.5 0)"/>
       <use xlink:href="#DejaVuSans-4c" transform="translate(1514.90625 0)"/>
       <use xlink:href="#DejaVuSans-56" transform="translate(1542.6875 0)"/>
       <use xlink:href="#DejaVuSans-48" transform="translate(1594.78125 0)"/>
       <use xlink:href="#DejaVuSans-3" transform="translate(1656.3125 0)"/>
       <use xlink:href="#DejaVuSans-56" transform="translate(1688.09375 0)"/>
       <use xlink:href="#DejaVuSans-4c" transform="translate(1740.1875 0)"/>
       <use xlink:href="#DejaVuSans-4b" transform="translate(1767.96875 0)"/>
       <use xlink:href="#DejaVuSans-4c" transform="translate(1831.34375 0)"/>
       <use xlink:href="#DejaVuSans-47" transform="translate(1859.125 0)"/>
      </g>
     </g>
    </g>
   </g>
   <g id="patch_3">
    <path d="M 602.776291 390.121342 
L 325.96304 390.121342 
L 325.96304 371.186814 
L 602.776291 371.186814 
z
" clip-path="url(#p1d37124cc6)" style="fill: #add8e6"/>
   </g>
   <g id="patch_4">
    <path d="M 602.776291 366.453182 
L 333.798208 366.453182 
L 333.798208 347.518653 
L 602.776291 347.518653 
z
" clip-path="url(#p1d37124cc6)" style="fill: #add8e6"/>
   </g>
   <g id="patch_5">
    <path d="M 602.776291 342.785021 
L 386.40818 342.785021 
L 386.40818 323.850492 
L 602.776291 323.850492 
z
" clip-path="url(#p1d37124cc6)" style="fill: #add8e6"/>
   </g>
   <g id="patch_6">
    <path d="M 602.776291 319.11686 
L 465.855695 319.11686 
L 465.855695 300.182332 
L 602.776291 300.182332 
z
" clip-path="url(#p1d37124cc6)" style="fill: #add8e6"/>
   </g>
   <g id="patch_7">
    <path d="M 602.776291 295.4487 
L 471.089697 295.4487 
L 471.089697 276.514171 
L 602.776291 276.514171 
z
" clip-path="url(#p1d37124cc6)" style="fill: #add8e6"/>
   </g>
   <g id="patch_8">
    <path d="M 602.776291 271.780539 
L 494.854946 271.780539 
L 494.854946 252.84601 
L 602.776291 252.84601 
z
" clip-path="url(#p1d37124cc6)" style="fill: #add8e6"/>
   </g>
   <g id="patch_9">
    <path d="M 602.776291 248.112378 
L 528.216077 248.112378 
L 528.216077 229.17785 
L 602.776291 229.17785 
z
" clip-path="url(#p1d37124cc6)" style="fill: #add8e6"/>
   </g>
   <g id="patch_10">
    <path d="M 602.776291 224.444217 
L 625.640879 224.444217 
L 625.640879 205.509689 
L 602.776291 205.509689 
z
" clip-path="url(#p1d37124cc6)" style="fill: #add8e6"/>
   </g>
   <g id="patch_11">
    <path d="M 602.776291 200.776057 
L 639.046327 200.776057 
L 639.046327 181.841528 
L 602.776291 181.841528 
z
" clip-path="url(#p1d37124cc6)" style="fill: #add8e6"/>
   </g>
   <g id="patch_12">
    <path d="M 602.776291 177.107896 
L 686.572506 177.107896 
L 686.572506 158.173367 
L 602.776291 158.173367 
z
" clip-path="url(#p1d37124cc6)" style="fill: #add8e6"/>
   </g>
   <g id="patch_13">
    <path d="M 602.776291 153.439735 
L 695.243527 153.439735 
L 695.243527 134.505207 
L 602.776291 134.505207 
z
" clip-path="url(#p1d37124cc6)" style="fill: #add8e6"/>
   </g>
   <g id="patch_14">
    <path d="M 602.776291 129.771575 
L 713.185075 129.771575 
L 713.185075 110.837046 
L 602.776291 110.837046 
z
" clip-path="url(#p1d37124cc6)" style="fill: #add8e6"/>
   </g>
   <g id="patch_15">
    <path d="M 602.776291 106.103414 
L 743.129583 106.103414 
L 743.129583 87.168885 
L 602.776291 87.168885 
z
" clip-path="url(#p1d37124cc6)" style="fill: #add8e6"/>
   </g>
   <g id="patch_16">
    <path d="M 602.776291 82.435253 
L 919.084428 82.435253 
L 919.084428 63.500725 
L 602.776291 63.500725 
z
" clip-path="url(#p1d37124cc6)" style="fill: #add8e6"/>
   </g>
   <g id="patch_17">
    <path d="M 602.776291 58.767092 
L 1026.130085 58.767092 
L 1026.130085 39.832564 
L 602.776291 39.832564 
z
" clip-path="url(#p1d37124cc6)" style="fill: #add8e6"/>
   </g>
   <g id="line2d_28">
    <path d="M 602.776291 407.635781 
L 602.776291 22.318125 
" clip-path="url(#p1d37124cc6)" style="fill: none; stroke: #000000; stroke-width: 0.8; stroke-linecap: square"/>
   </g>
   <g id="patch_18">
    <path d="M 290.954687 407.635781 
L 290.954687 22.318125 
" style="fill: none; stroke: #000000; stroke-width: 0.8; stroke-linejoin: miter; stroke-linecap: square"/>
   </g>
   <g id="patch_19">
    <path d="M 1061.138438 407.635781 
L 1061.138438 22.318125 
" style="fill: none; stroke: #000000; stroke-width: 0.8; stroke-linejoin: miter; stroke-linecap: square"/>
   </g>
   <g id="patch_20">
    <path d="M 290.954687 407.635781 
L 1061.138438 407.635781 
" style="fill: none; stroke: #000000; stroke-width: 0.8; stroke-linejoin: miter; stroke-linecap: square"/>
   </g>
   <g id="patch_21">
    <path d="M 290.954687 22.318125 
L 1061.138438 22.318125 
" style="fill: none; stroke: #000000; stroke-width: 0.8; stroke-linejoin: miter; stroke-linecap: square"/>
   </g>
   <g id="text_23">
    <!-- Within Energeetika ja energiaturud: subtopic share changes -->
    <g transform="translate(290.954687 16.318125) scale(0.12 -0.12)">
     <defs>
      <path id="DejaVuSans-3a" d="M 213 4666 
L 850 4666 
L 1831 722 
L 2809 4666 
L 3519 4666 
L 4500 722 
L 5478 4666 
L 6119 4666 
L 4947 0 
L 4153 0 
L 3169 4050 
L 2175 0 
L 1381 0 
L 213 4666 
z
" transform="scale(0.015625)"/>
     </defs>
     <use xlink:href="#DejaVuSans-3a"/>
     <use xlink:href="#DejaVuSans-4c" transform="translate(96.671875 0)"/>
     <use xlink:href="#DejaVuSans-57" transform="translate(124.453125 0)"/>
     <use xlink:href="#DejaVuSans-4b" transform="translate(163.65625 0)"/>
     <use xlink:href="#DejaVuSans-4c" transform="translate(227.03125 0)"/>
     <use xlink:href="#DejaVuSans-51" transform="translate(254.8125 0)"/>
     <use xlink:href="#DejaVuSans-3" transform="translate(318.1875 0)"/>
     <use xlink:href="#DejaVuSans-28" transform="translate(349.96875 0)"/>
     <use xlink:href="#DejaVuSans-51" transform="translate(413.15625 0)"/>
     <use xlink:href="#DejaVuSans-48" transform="translate(476.53125 0)"/>
     <use xlink:href="#DejaVuSans-55" transform="translate(538.0625 0)"/>
     <use xlink:href="#DejaVuSans-4a" transform="translate(577.421875 0)"/>
     <use xlink:href="#DejaVuSans-48" transform="translate(640.90625 0)"/>
     <use xlink:href="#DejaVuSans-48" transform="translate(702.4375 0)"/>
     <use xlink:href="#DejaVuSans-57" transform="translate(763.96875 0)"/>
     <use xlink:href="#DejaVuSans-4c" transform="translate(803.171875 0)"/>
     <use xlink:href="#DejaVuSans-4e" transform="translate(830.953125 0)"/>
     <use xlink:href="#DejaVuSans-44" transform="translate(887.109375 0)"/>
     <use xlink:href="#DejaVuSans-3" transform="translate(948.390625 0)"/>
     <use xlink:href="#DejaVuSans-4d" transform="translate(980.171875 0)"/>
     <use xlink:href="#DejaVuSans-44" transform="translate(1007.953125 0)"/>
     <use xlink:href="#DejaVuSans-3" transform="translate(1069.234375 0)"/>
     <use xlink:href="#DejaVuSans-48" transform="translate(1101.015625 0)"/>
     <use xlink:href="#DejaVuSans-51" transform="translate(1162.546875 0)"/>
     <use xlink:href="#DejaVuSans-48" transform="translate(1225.921875 0)"/>
     <use xlink:href="#DejaVuSans-55" transform="translate(1287.453125 0)"/>
     <use xlink:href="#DejaVuSans-4a" transform="translate(1326.8125 0)"/>
     <use xlink:href="#DejaVuSans-4c" transform="translate(1390.296875 0)"/>
     <use xlink:href="#DejaVuSans-44" transform="translate(1418.078125 0)"/>
     <use xlink:href="#DejaVuSans-57" transform="translate(1479.359375 0)"/>
     <use xlink:href="#DejaVuSans-58" transform="translate(1518.5625 0)"/>
     <use xlink:href="#DejaVuSans-55" transform="translate(1581.9375 0)"/>
     <use xlink:href="#DejaVuSans-58" transform="translate(1623.046875 0)"/>
     <use xlink:href="#DejaVuSans-47" transform="translate(1686.421875 0)"/>
     <use xlink:href="#DejaVuSans-1d" transform="translate(1749.90625 0)"/>
     <use xlink:href="#DejaVuSans-3" transform="translate(1783.59375 0)"/>
     <use xlink:href="#DejaVuSans-56" transform="translate(1815.375 0)"/>
     <use xlink:href="#DejaVuSans-58" transform="translate(1867.46875 0)"/>
     <use xlink:href="#DejaVuSans-45" transform="translate(1930.84375 0)"/>
     <use xlink:href="#DejaVuSans-57" transform="translate(1994.328125 0)"/>
     <use xlink:href="#DejaVuSans-52" transform="translate(2033.53125 0)"/>
     <use xlink:href="#DejaVuSans-53" transform="translate(2094.71875 0)"/>
     <use xlink:href="#DejaVuSans-4c" transform="translate(2158.203125 0)"/>
     <use xlink:href="#DejaVuSans-46" transform="translate(2185.984375 0)"/>
     <use xlink:href="#DejaVuSans-3" transform="translate(2240.96875 0)"/>
     <use xlink:href="#DejaVuSans-56" transform="translate(2272.75 0)"/>
     <use xlink:href="#DejaVuSans-4b" transform="translate(2324.84375 0)"/>
     <use xlink:href="#DejaVuSans-44" transform="translate(2388.21875 0)"/>
     <use xlink:href="#DejaVuSans-55" transform="translate(2449.5 0)"/>
     <use xlink:href="#DejaVuSans-48" transform="translate(2488.40625 0)"/>
     <use xlink:href="#DejaVuSans-3" transform="translate(2549.9375 0)"/>
     <use xlink:href="#DejaVuSans-46" transform="translate(2581.71875 0)"/>
     <use xlink:href="#DejaVuSans-4b" transform="translate(2636.703125 0)"/>
     <use xlink:href="#DejaVuSans-44" transform="translate(2700.078125 0)"/>
     <use xlink:href="#DejaVuSans-51" transform="translate(2761.359375 0)"/>
     <use xlink:href="#DejaVuSans-4a" transform="translate(2824.734375 0)"/>
     <use xlink:href="#DejaVuSans-48" transform="translate(2888.21875 0)"/>
     <use xlink:href="#DejaVuSans-56" transform="translate(2949.75 0)"/>
    </g>
   </g>
  </g>
 </g>
 <defs>
  <clipPath id="p1d37124cc6">
   <rect x="290.954687" y="22.318125" width="770.18375" height="385.317656"/>
  </clipPath>
 </defs>
</svg>
